<COLLADA xmlns="http://www.collada.org/2005/11/COLLADASchema" version="1.4.1">
  <asset>
    <contributor/>
    <created>2025-09-07T05:42:31.814412</created>
    <modified>2025-09-07T05:42:31.814414</modified>
    <unit name="meter" meter="1.0"/>
    <up_axis>Z_UP</up_axis>
  </asset>
  <library_effects>
    <effect id="effect_col_chassis_col_obj_shape001" name="effect_col_chassis_col_obj_shape001">
      <profile_COMMON>
        <technique sid="common">
          <phong>
            <emission>
              <color>0.0 0.0 0.0 1.0</color>
            </emission>
            <ambient>
              <color>0.0 0.0 0.0 1.0</color>
            </ambient>
            <diffuse>
              <color>0.4470590054988861 0.4745100140571594 0.5019609928131104 1.0</color>
            </diffuse>
            <specular>
              <color>1 1 1 1.0</color>
            </specular>
            <shininess>
              <float>0.0</float>
            </shininess>
            <reflective>
              <color>0.0 0.0 0.0 1.0</color>
            </reflective>
            <reflectivity>
              <float>0.0</float>
            </reflectivity>
            <transparent>
              <color>0.0 0.0 0.0 1.0</color>
            </transparent>
            <transparency>
              <float>1.0</float>
            </transparency>
          </phong>
        </technique>
        <extra>
          <technique profile="GOOGLEEARTH">
            <double_sided>0</double_sided>
          </technique>
        </extra>
      </profile_COMMON>
    </effect>
  </library_effects>
  <library_geometries>
    <geometry id="geometry0" name="col_chassis_col_obj_shape001">
      <mesh>
        <source id="cubeverts-array0">
          <float_array count="1536" id="cubeverts-array0-array">-0.1142593 -0.03439245 0.02 -0.1142593 -0.08072719 0.01340086 -0.1142593 -0.08090126 0.01357933 -0.1142593 -0.08108402 0.01374891 -0.1142593 -0.08056223 0.01321394 -0.1142593 -0.081275 0.01390916 -0.1142593 -0.08040678 0.01301902 -0.1142593 -0.08147373 0.01405969 -0.1142593 -0.08026125 0.0128166 -0.1142593 -0.08167972 0.01420013 -0.1142593 -0.08012599 0.01260718 -0.1142593 -0.08189245 0.01433013 -0.1142593 -0.08000134 0.01239127 -0.1142593 -0.0821114 0.01444936 -0.1142593 -0.0798876 0.01216942 -0.1142593 -0.08233601 0.01455753 -0.1142593 -0.07978506 0.01194217 -0.1142593 -0.08256574 0.01465437 -0.1142593 -0.07969398 0.0117101 -0.1142593 -0.08280002 0.01473964 -0.1142593 -0.07961459 0.01147378 -0.1142593 -0.07954706 0.01123379 -0.1142593 -0.07949158 0.01099073 -0.1142593 -0.0794483 0.01074521 -0.1142593 -0.0794173 0.01049784 -0.1142593 -0.07939867 0.01024923 -0.1142593 -0.03439245 0 -0.1142593 -0.07939245 0.01 -0.1142593 -0.07939867 0.009750771 -0.1142593 -0.0794173 0.009502161 -0.1142593 -0.0794483 0.009254788 -0.1142593 -0.07949158 0.00900927 -0.1142593 -0.07954706 0.008766213 -0.1142593 -0.07961459 0.008526224 -0.1142593 -0.07969398 0.008289899 -0.1142593 -0.07978506 0.008057826 -0.1142593 -0.0798876 0.007830581 -0.1142593 -0.08000134 0.00760873 -0.1142593 -0.08012599 0.007392824 -0.1142593 -0.08026125 0.0071834 -0.1142593 -0.08040678 0.006980978 -0.1142593 -0.08056223 0.006786062 -0.1142593 -0.08072719 0.006599136 -0.1142593 -0.08788363 0.01357933 -0.1142593 -0.09439245 0.02 -0.1142593 -0.08770087 0.01374891 -0.1142593 -0.0875099 0.01390916 -0.1142593 -0.08731116 0.01405969 -0.1142593 -0.08710518 0.01420013 -0.1142593 -0.08689245 0.01433013 -0.1142593 -0.0866735 0.01444936 -0.1142593 -0.08644888 0.01455753 -0.1142593 -0.08621915 0.01465437 -0.1142593 -0.08598488 0.01473964 -0.1142593 -0.08574665 0.01481312 -0.1142593 -0.08550505 0.01487464 -0.1142593 -0.08526069 0.01492404 -0.1142593 -0.08501417 0.0149612 -0.1142593 -0.0847661 0.01498602 -0.1142593 -0.08451711 0.01499845 -0.1142593 -0.08426779 0.01499845 -0.1142593 -0.0840188 0.01498602 -0.1142593 -0.08377073 0.0149612 -0.1142593 -0.08352421 0.01492404 -0.1142593 -0.08327985 0.01487464 -0.1142593 -0.08303825 0.01481312 -0.1142593 -0.08090126 0.006420666 -0.1142593 -0.08805771 0.01340086 -0.1142593 -0.08108402 0.006251094 -0.1142593 -0.08822267 0.01321394 -0.1142593 -0.081275 0.006090843 -0.1142593 -0.08837811 0.01301902 -0.1142593 -0.08147373 0.00594031 -0.1142593 -0.08852364 0.0128166 -0.1142593 -0.08167972 0.00579987 -0.1142593 -0.08865891 0.01260718 -0.1142593 -0.08878355 0.01239127 -0.1142593 -0.08889729 0.01216942 -0.1142593 -0.08899983 0.01194217 -0.1142593 -0.08909091 0.0117101 -0.1142593 -0.08917031 0.01147378 -0.1142593 -0.08923783 0.01123379 -0.1142593 -0.08929331 0.01099073 -0.1142593 -0.0893366 0.01074521 -0.1142593 -0.0893676 0.01049784 -0.1142593 -0.08938623 0.01024923 -0.1142593 -0.08939245 0.01 -0.1142593 -0.0847661 0.005013981 -0.1142593 -0.09439245 0 -0.1142593 -0.08501417 0.005038804 -0.1142593 -0.08526069 0.005075961 -0.1142593 -0.08550505 0.00512536 -0.1142593 -0.08574665 0.005186879 -0.1142593 -0.08598488 0.005260363 -0.1142593 -0.08621915 0.005345631 -0.1142593 -0.08644888 0.005442471 -0.1142593 -0.0866735 0.005550641 -0.1142593 -0.08689245 0.005669873 -0.1142593 -0.08710518 0.00579987 -0.1142593 -0.08731116 0.00594031 -0.1142593 -0.0875099 0.006090843 -0.1142593 -0.08770087 0.006251094 -0.1142593 -0.08788363 0.006420666 -0.1142593 -0.08805771 0.006599136 -0.1142593 -0.08822267 0.006786062 -0.1142593 -0.08837811 0.006980978 -0.1142593 -0.08852364 0.0071834 -0.1142593 -0.08865891 0.007392824 -0.1142593 -0.08878355 0.00760873 -0.1142593 -0.08889729 0.007830581 -0.1142593 -0.08899983 0.008057826 -0.1142593 -0.08909091 0.008289899 -0.1142593 -0.08917031 0.008526224 -0.1142593 -0.08923783 0.008766213 -0.1142593 -0.08929331 0.00900927 -0.1142593 -0.0893366 0.009254788 -0.1142593 -0.0893676 0.009502161 -0.1142593 -0.08938623 0.009750771 -0.1142593 -0.08327985 0.00512536 -0.1142593 -0.08352421 0.005075961 -0.1142593 -0.08377073 0.005038804 -0.1142593 -0.0840188 0.005013981 -0.1142593 -0.08426779 0.005001554 -0.1142593 -0.08451711 0.005001554 -0.1142593 -0.08303825 0.005186879 -0.1142593 -0.08280002 0.005260363 -0.1142593 -0.08256574 0.005345631 -0.1142593 -0.08233601 0.005442471 -0.1142593 -0.0821114 0.005550641 -0.1142593 -0.08189245 0.005669873 -0.05425927 -0.03439245 0 -0.05425927 -0.03439245 0.02 -0.05425927 -0.09439245 0 -0.05425927 -0.09439245 0.02 -0.1192593 -0.08939245 0.01 -0.1192593 -0.08938623 0.01024923 -0.1192593 -0.0893676 0.01049784 -0.1192593 -0.0893366 0.01074521 -0.1192593 -0.08929331 0.01099073 -0.1192593 -0.08923783 0.01123379 -0.1192593 -0.08917031 0.01147378 -0.1192593 -0.08909091 0.0117101 -0.1192593 -0.08899983 0.01194217 -0.1192593 -0.08889729 0.01216942 -0.1192593 -0.08878355 0.01239127 -0.1192593 -0.08865891 0.01260718 -0.1192593 -0.08852364 0.0128166 -0.1192593 -0.08837811 0.01301902 -0.1192593 -0.08822267 0.01321394 -0.1192593 -0.08805771 0.01340086 -0.1192593 -0.08788363 0.01357933 -0.1192593 -0.08770087 0.01374891 -0.1192593 -0.0875099 0.01390916 -0.1192593 -0.08731116 0.01405969 -0.1192593 -0.08710518 0.01420013 -0.1192593 -0.08689245 0.01433013 -0.1192593 -0.0866735 0.01444936 -0.1192593 -0.08644888 0.01455753 -0.1192593 -0.08621915 0.01465437 -0.1192593 -0.08598488 0.01473964 -0.1192593 -0.08574665 0.01481312 -0.1192593 -0.08550505 0.01487464 -0.1192593 -0.08526069 0.01492404 -0.1192593 -0.08501417 0.0149612 -0.1192593 -0.0847661 0.01498602 -0.1192593 -0.08451711 0.01499845 -0.1192593 -0.08426779 0.01499845 -0.1192593 -0.0840188 0.01498602 -0.1192593 -0.08377073 0.0149612 -0.1192593 -0.08352421 0.01492404 -0.1192593 -0.08327985 0.01487464 -0.1192593 -0.08303825 0.01481312 -0.1192593 -0.08280002 0.01473964 -0.1192593 -0.08256574 0.01465437 -0.1192593 -0.08233601 0.01455753 -0.1192593 -0.0821114 0.01444936 -0.1192593 -0.08189245 0.01433013 -0.1192593 -0.08167972 0.01420013 -0.1192593 -0.08147373 0.01405969 -0.1192593 -0.081275 0.01390916 -0.1192593 -0.08108402 0.01374891 -0.1192593 -0.08090126 0.01357933 -0.1192593 -0.08072719 0.01340086 -0.1192593 -0.08056223 0.01321394 -0.1192593 -0.08040678 0.01301902 -0.1192593 -0.08026125 0.0128166 -0.1192593 -0.08012599 0.01260718 -0.1192593 -0.08000134 0.01239127 -0.1192593 -0.0798876 0.01216942 -0.1192593 -0.07978506 0.01194217 -0.1192593 -0.07969398 0.0117101 -0.1192593 -0.07961459 0.01147378 -0.1192593 -0.07954706 0.01123379 -0.1192593 -0.07949158 0.01099073 -0.1192593 -0.0794483 0.01074521 -0.1192593 -0.0794173 0.01049784 -0.1192593 -0.07939867 0.01024923 -0.1192593 -0.07939245 0.01 -0.1192593 -0.07939867 0.009750771 -0.1192593 -0.0794173 0.009502161 -0.1192593 -0.0794483 0.009254788 -0.1192593 -0.07949158 0.00900927 -0.1192593 -0.07954706 0.008766213 -0.1192593 -0.07961459 0.008526224 -0.1192593 -0.07969398 0.008289899 -0.1192593 -0.07978506 0.008057826 -0.1192593 -0.0798876 0.007830581 -0.1192593 -0.08000134 0.00760873 -0.1192593 -0.08012599 0.007392824 -0.1192593 -0.08026125 0.0071834 -0.1192593 -0.08040678 0.006980978 -0.1192593 -0.08056223 0.006786062 -0.1192593 -0.08072719 0.006599136 -0.1192593 -0.08090126 0.006420666 -0.1192593 -0.08108402 0.006251094 -0.1192593 -0.081275 0.006090843 -0.1192593 -0.08147373 0.00594031 -0.1192593 -0.08167972 0.00579987 -0.1192593 -0.08189245 0.005669873 -0.1192593 -0.0821114 0.005550641 -0.1192593 -0.08233601 0.005442471 -0.1192593 -0.08256574 0.005345631 -0.1192593 -0.08280002 0.005260363 -0.1192593 -0.08303825 0.005186879 -0.1192593 -0.08327985 0.00512536 -0.1192593 -0.08352421 0.005075961 -0.1192593 -0.08377073 0.005038804 -0.1192593 -0.0840188 0.005013981 -0.1192593 -0.08426779 0.005001554 -0.1192593 -0.08451711 0.005001554 -0.1192593 -0.0847661 0.005013981 -0.1192593 -0.08501417 0.005038804 -0.1192593 -0.08526069 0.005075961 -0.1192593 -0.08550505 0.00512536 -0.1192593 -0.08574665 0.005186879 -0.1192593 -0.08598488 0.005260363 -0.1192593 -0.08621915 0.005345631 -0.1192593 -0.08644888 0.005442471 -0.1192593 -0.0866735 0.005550641 -0.1192593 -0.08689245 0.005669873 -0.1192593 -0.08710518 0.00579987 -0.1192593 -0.08731116 0.00594031 -0.1192593 -0.0875099 0.006090843 -0.1192593 -0.08770087 0.006251094 -0.1192593 -0.08788363 0.006420666 -0.1192593 -0.08805771 0.006599136 -0.1192593 -0.08822267 0.006786062 -0.1192593 -0.08837811 0.006980978 -0.1192593 -0.08852364 0.0071834 -0.1192593 -0.08865891 0.007392824 -0.1192593 -0.08878355 0.00760873 -0.1192593 -0.08889729 0.007830581 -0.1192593 -0.08899983 0.008057826 -0.1192593 -0.08909091 0.008289899 -0.1192593 -0.08917031 0.008526224 -0.1192593 -0.08923783 0.008766213 -0.1192593 -0.08929331 0.00900927 -0.1192593 -0.0893366 0.009254788 -0.1192593 -0.0893676 0.009502161 -0.1192593 -0.08938623 0.009750771 -0.05425927 -0.08805771 0.01340086 -0.05425927 -0.08788363 0.01357933 -0.05425927 -0.08770087 0.01374891 -0.05425927 -0.08822267 0.01321394 -0.05425927 -0.0875099 0.01390916 -0.05425927 -0.08837811 0.01301902 -0.05425927 -0.08731116 0.01405969 -0.05425927 -0.08852364 0.0128166 -0.05425927 -0.08710518 0.01420013 -0.05425927 -0.08865891 0.01260718 -0.05425927 -0.08689245 0.01433013 -0.05425927 -0.08878355 0.01239127 -0.05425927 -0.0866735 0.01444936 -0.05425927 -0.08889729 0.01216942 -0.05425927 -0.08644888 0.01455753 -0.05425927 -0.08899983 0.01194217 -0.05425927 -0.08621915 0.01465437 -0.05425927 -0.08909091 0.0117101 -0.05425927 -0.08598488 0.01473964 -0.05425927 -0.08917031 0.01147378 -0.05425927 -0.08574665 0.01481312 -0.05425927 -0.08923783 0.01123379 -0.05425927 -0.08550505 0.01487464 -0.05425927 -0.08929331 0.01099073 -0.05425927 -0.08526069 0.01492404 -0.05425927 -0.0893366 0.01074521 -0.05425927 -0.08501417 0.0149612 -0.05425927 -0.0893676 0.01049784 -0.05425927 -0.0847661 0.01498602 -0.05425927 -0.08938623 0.01024923 -0.05425927 -0.08451711 0.01499845 -0.05425927 -0.08939245 0.01 -0.05425927 -0.08426779 0.01499845 -0.05425927 -0.0840188 0.01498602 -0.05425927 -0.08377073 0.0149612 -0.05425927 -0.08352421 0.01492404 -0.05425927 -0.08327985 0.01487464 -0.05425927 -0.08303825 0.01481312 -0.05425927 -0.08280002 0.01473964 -0.05425927 -0.08938623 0.009750771 -0.05425927 -0.0893676 0.009502161 -0.05425927 -0.0893366 0.009254788 -0.05425927 -0.08929331 0.00900927 -0.05425927 -0.08923783 0.008766213 -0.05425927 -0.08917031 0.008526224 -0.05425927 -0.08909091 0.008289899 -0.05425927 -0.08899983 0.008057826 -0.05425927 -0.08889729 0.007830581 -0.05425927 -0.08878355 0.00760873 -0.05425927 -0.08865891 0.007392824 -0.05425927 -0.08852364 0.0071834 -0.05425927 -0.08837811 0.006980978 -0.05425927 -0.08822267 0.006786062 -0.05425927 -0.08805771 0.006599136 -0.05425927 -0.08788363 0.006420666 -0.05425927 -0.08770087 0.006251094 -0.05425927 -0.0875099 0.006090843 -0.05425927 -0.08731116 0.00594031 -0.05425927 -0.08710518 0.00579987 -0.05425927 -0.08689245 0.005669873 -0.05425927 -0.0866735 0.005550641 -0.05425927 -0.08644888 0.005442471 -0.05425927 -0.08621915 0.005345631 -0.05425927 -0.08598488 0.005260363 -0.05425927 -0.08574665 0.005186879 -0.05425927 -0.08550505 0.00512536 -0.05425927 -0.08526069 0.005075961 -0.05425927 -0.08501417 0.005038804 -0.05425927 -0.0847661 0.005013981 -0.05425927 -0.08451711 0.005001554 -0.05425927 -0.08426779 0.005001554 -0.05425927 -0.0840188 0.005013981 -0.05425927 -0.08377073 0.005038804 -0.05425927 -0.08352421 0.005075961 -0.05425927 -0.08327985 0.00512536 -0.05425927 -0.07939245 0.01 -0.05425927 -0.07939867 0.01024923 -0.05425927 -0.0794173 0.01049784 -0.05425927 -0.0794483 0.01074521 -0.05425927 -0.07949158 0.01099073 -0.05425927 -0.07954706 0.01123379 -0.05425927 -0.07961459 0.01147378 -0.05425927 -0.07969398 0.0117101 -0.05425927 -0.07978506 0.01194217 -0.05425927 -0.0798876 0.01216942 -0.05425927 -0.08000134 0.01239127 -0.05425927 -0.08012599 0.01260718 -0.05425927 -0.08026125 0.0128166 -0.05425927 -0.08040678 0.01301902 -0.05425927 -0.08056223 0.01321394 -0.05425927 -0.08072719 0.01340086 -0.05425927 -0.08090126 0.01357933 -0.05425927 -0.08108402 0.01374891 -0.05425927 -0.081275 0.01390916 -0.05425927 -0.08147373 0.01405969 -0.05425927 -0.08167972 0.01420013 -0.05425927 -0.08189245 0.01433013 -0.05425927 -0.0821114 0.01444936 -0.05425927 -0.08233601 0.01455753 -0.05425927 -0.08256574 0.01465437 -0.05425927 -0.08167972 0.00579987 -0.05425927 -0.08147373 0.00594031 -0.05425927 -0.081275 0.006090843 -0.05425927 -0.08108402 0.006251094 -0.05425927 -0.08090126 0.006420666 -0.05425927 -0.08072719 0.006599136 -0.05425927 -0.08056223 0.006786062 -0.05425927 -0.08040678 0.006980978 -0.05425927 -0.08026125 0.0071834 -0.05425927 -0.08012599 0.007392824 -0.05425927 -0.08000134 0.00760873 -0.05425927 -0.0798876 0.007830581 -0.05425927 -0.07978506 0.008057826 -0.05425927 -0.07969398 0.008289899 -0.05425927 -0.07961459 0.008526224 -0.05425927 -0.07954706 0.008766213 -0.05425927 -0.07949158 0.00900927 -0.05425927 -0.0794483 0.009254788 -0.05425927 -0.0794173 0.009502161 -0.05425927 -0.07939867 0.009750771 -0.05425927 -0.08303825 0.005186879 -0.05425927 -0.08280002 0.005260363 -0.05425927 -0.08256574 0.005345631 -0.05425927 -0.08233601 0.005442471 -0.05425927 -0.0821114 0.005550641 -0.05425927 -0.08189245 0.005669873 -0.04925927 -0.07939245 0.01 -0.04925927 -0.07939867 0.01024923 -0.04925927 -0.0794173 0.01049784 -0.04925927 -0.0794483 0.01074521 -0.04925927 -0.07949158 0.01099073 -0.04925927 -0.07954706 0.01123379 -0.04925927 -0.07961459 0.01147378 -0.04925927 -0.07969398 0.0117101 -0.04925927 -0.07978506 0.01194217 -0.04925927 -0.0798876 0.01216942 -0.04925927 -0.08000134 0.01239127 -0.04925927 -0.08012599 0.01260718 -0.04925927 -0.08026125 0.0128166 -0.04925927 -0.08040678 0.01301902 -0.04925927 -0.08056223 0.01321394 -0.04925927 -0.08072719 0.01340086 -0.04925927 -0.08090126 0.01357933 -0.04925927 -0.08108402 0.01374891 -0.04925927 -0.081275 0.01390916 -0.04925927 -0.08147373 0.01405969 -0.04925927 -0.08167972 0.01420013 -0.04925927 -0.08189245 0.01433013 -0.04925927 -0.0821114 0.01444936 -0.04925927 -0.08233601 0.01455753 -0.04925927 -0.08256574 0.01465437 -0.04925927 -0.08280002 0.01473964 -0.04925927 -0.08303825 0.01481312 -0.04925927 -0.08327985 0.01487464 -0.04925927 -0.08352421 0.01492404 -0.04925927 -0.08377073 0.0149612 -0.04925927 -0.0840188 0.01498602 -0.04925927 -0.08426779 0.01499845 -0.04925927 -0.08451711 0.01499845 -0.04925927 -0.0847661 0.01498602 -0.04925927 -0.08501417 0.0149612 -0.04925927 -0.08526069 0.01492404 -0.04925927 -0.08550505 0.01487464 -0.04925927 -0.08574665 0.01481312 -0.04925927 -0.08598488 0.01473964 -0.04925927 -0.08621915 0.01465437 -0.04925927 -0.08644888 0.01455753 -0.04925927 -0.0866735 0.01444936 -0.04925927 -0.08689245 0.01433013 -0.04925927 -0.08710518 0.01420013 -0.04925927 -0.08731116 0.01405969 -0.04925927 -0.0875099 0.01390916 -0.04925927 -0.08770087 0.01374891 -0.04925927 -0.08788363 0.01357933 -0.04925927 -0.08805771 0.01340086 -0.04925927 -0.08822267 0.01321394 -0.04925927 -0.08837811 0.01301902 -0.04925927 -0.08852364 0.0128166 -0.04925927 -0.08865891 0.01260718 -0.04925927 -0.08878355 0.01239127 -0.04925927 -0.08889729 0.01216942 -0.04925927 -0.08899983 0.01194217 -0.04925927 -0.08909091 0.0117101 -0.04925927 -0.08917031 0.01147378 -0.04925927 -0.08923783 0.01123379 -0.04925927 -0.08929331 0.01099073 -0.04925927 -0.0893366 0.01074521 -0.04925927 -0.0893676 0.01049784 -0.04925927 -0.08938623 0.01024923 -0.04925927 -0.08939245 0.01 -0.04925927 -0.08938623 0.009750771 -0.04925927 -0.0893676 0.009502161 -0.04925927 -0.0893366 0.009254788 -0.04925927 -0.08929331 0.00900927 -0.04925927 -0.08923783 0.008766213 -0.04925927 -0.08917031 0.008526224 -0.04925927 -0.08909091 0.008289899 -0.04925927 -0.08899983 0.008057826 -0.04925927 -0.08889729 0.007830581 -0.04925927 -0.08878355 0.00760873 -0.04925927 -0.08865891 0.007392824 -0.04925927 -0.08852364 0.0071834 -0.04925927 -0.08837811 0.006980978 -0.04925927 -0.08822267 0.006786062 -0.04925927 -0.08805771 0.006599136 -0.04925927 -0.08788363 0.006420666 -0.04925927 -0.08770087 0.006251094 -0.04925927 -0.0875099 0.006090843 -0.04925927 -0.08731116 0.00594031 -0.04925927 -0.08710518 0.00579987 -0.04925927 -0.08689245 0.005669873 -0.04925927 -0.0866735 0.005550641 -0.04925927 -0.08644888 0.005442471 -0.04925927 -0.08621915 0.005345631 -0.04925927 -0.08598488 0.005260363 -0.04925927 -0.08574665 0.005186879 -0.04925927 -0.08550505 0.00512536 -0.04925927 -0.08526069 0.005075961 -0.04925927 -0.08501417 0.005038804 -0.04925927 -0.0847661 0.005013981 -0.04925927 -0.08451711 0.005001554 -0.04925927 -0.08426779 0.005001554 -0.04925927 -0.0840188 0.005013981 -0.04925927 -0.08377073 0.005038804 -0.04925927 -0.08352421 0.005075961 -0.04925927 -0.08327985 0.00512536 -0.04925927 -0.08303825 0.005186879 -0.04925927 -0.08280002 0.005260363 -0.04925927 -0.08256574 0.005345631 -0.04925927 -0.08233601 0.005442471 -0.04925927 -0.0821114 0.005550641 -0.04925927 -0.08189245 0.005669873 -0.04925927 -0.08167972 0.00579987 -0.04925927 -0.08147373 0.00594031 -0.04925927 -0.081275 0.006090843 -0.04925927 -0.08108402 0.006251094 -0.04925927 -0.08090126 0.006420666 -0.04925927 -0.08072719 0.006599136 -0.04925927 -0.08056223 0.006786062 -0.04925927 -0.08040678 0.006980978 -0.04925927 -0.08026125 0.0071834 -0.04925927 -0.08012599 0.007392824 -0.04925927 -0.08000134 0.00760873 -0.04925927 -0.0798876 0.007830581 -0.04925927 -0.07978506 0.008057826 -0.04925927 -0.07969398 0.008289899 -0.04925927 -0.07961459 0.008526224 -0.04925927 -0.07954706 0.008766213 -0.04925927 -0.07949158 0.00900927 -0.04925927 -0.0794483 0.009254788 -0.04925927 -0.0794173 0.009502161 -0.04925927 -0.07939867 0.009750771</float_array>
          <technique_common>
            <accessor count="512" source="#cubeverts-array0-array" stride="3">
              <param type="float" name="X"/>
              <param type="float" name="Y"/>
              <param type="float" name="Z"/>
            </accessor>
          </technique_common>
        </source>
        <source id="cubenormals-array0">
          <float_array count="3060" id="cubenormals-array0-array">-1 0 0 -1 0 0 -1 0 0 -1 0 0 -1 0 0 -1 0 0 -1 0 0 -1 0 0 -1 0 0 -1 0 0 -1 0 0 -1 0 0 -1 0 0 -1 0 0 -1 0 0 -1 0 0 -1 0 0 -1 0 0 -1 0 0 -1 0 0 -1 0 0 -1 0 0 -1 0 0 -1 0 0 -1 0 0 -1 0 0 -1 0 0 -1 0 0 -1 0 0 -1 0 0 -1 0 0 -1 0 0 -1 0 0 -1 0 0 -1 0 0 -1 0 0 -1 0 0 -1 0 0 -1 0 0 -1 0 0 -1 0 0 -1 0 0 -1 0 0 -1 0 0 -1 0 0 -1 0 0 -1 0 0 -1 0 0 -1 0 0 -1 0 0 -1 0 0 -1 0 0 -1 0 0 -1 0 0 -1 0 0 -1 0 0 -1 0 0 -1 0 0 -1 0 0 -1 0 0 -1 0 0 -1 0 0 -1 0 0 -1 0 0 -1 0 0 -1 -0 0 -1 0 0 -1 -0 0 -1 0 0 -1 -0 0 -1 0 0 -1 -0 0 -1 0 0 -1 -0 0 -1 -0 0 -1 -0 0 -1 -0 0 -1 -0 0 -1 -0 0 -1 -0 0 -1 -0 0 -1 -0 0 -1 -0 0 -1 -0 0 -1 -0 0 -1 -0 0 -1 -0 0 -1 -0 0 -1 -0 0 -1 -0 0 -1 -0 0 -1 -0 0 -1 -0 0 -1 -0 0 -1 -0 0 -1 -0 0 -1 -0 0 -1 -0 0 -1 -0 0 -1 -0 0 -1 -0 0 -1 -0 0 -1 -0 0 -1 -0 0 -1 -0 0 -1 -0 0 -1 -0 0 -1 -0 0 -1 -0 0 -1 -0 0 -1 -0 0 -1 -0 0 -1 -0 0 -1 -0 0 -1 -0 0 -1 -0 0 -1 0 0 -1 0 0 -1 0 0 -1 0 0 -1 -0 0 -1 -0 0 -1 0 0 -1 0 0 -1 0 0 -1 0 0 -1 0 0 -1 0 0 -1 0 0 -1 0 0 0 1 -0 0 1 0 0 0 -1 0 0 -1 0 0 1 0 0 1 0 -1 0 0 -1 0 0 -0.9996889 0.02494096 0 -0.9996889 0.02494096 0 -0.9972037 0.07473118 0 -0.99224 0.1243375 0 -0.9972037 0.07473118 0 -0.99224 0.1243375 0 -0.9848094 0.1736389 0 -0.9749236 0.2225398 0 -0.9848094 0.1736389 0 -0.9749236 0.2225398 0 -0.9626268 0.2708317 0 -0.9626268 0.2708317 0 -0.9479297 0.3184796 0 -0.9308767 0.3653335 0 -0.9479297 0.3184796 0 -0.9308767 0.3653335 0 -0.9115021 0.4112954 0 -0.9115021 0.4112954 0 -0.8898678 0.4562185 0 -0.8898678 0.4562185 0 -0.8660331 0.4999867 0 -0.8660331 0.4999867 0 -0.8400238 0.5425496 0 -0.8400238 0.5425496 0 -0.8119398 0.5837413 0 -0.8119398 0.5837413 0 -0.7818292 0.6234926 0 -0.7818292 0.6234926 0 -0.7497818 0.6616852 0 -0.7158577 0.6982462 0 -0.7497818 0.6616852 0 -0.7158577 0.6982462 0 -0.6801738 0.7330509 0 -0.6801738 0.7330509 0 -0.6427904 0.7660421 0 -0.603805 0.797132 0 -0.6427904 0.7660421 0 -0.603805 0.797132 0 -0.5633204 0.8262385 0 -0.5633204 0.8262385 0 -0.5214364 0.8532901 0 -0.5214364 0.8532901 0 -0.4782517 0.8782228 0 -0.4782517 0.8782228 0 -0.4338859 0.9009678 0 -0.4338859 0.9009678 0 -0.3884355 0.921476 0 -0.3884355 0.921476 0 -0.3420152 0.9396945 0 -0.3420152 0.9396945 0 -0.2947583 0.9555718 0 -0.2947583 0.9555718 0 -0.2467564 0.9690775 0 -0.2467564 0.9690775 0 -0.1981483 0.9801721 0 -0.1490422 0.9888308 0 -0.1981483 0.9801721 0 -0.1490422 0.9888308 0 -0.09956811 0.9950308 0 -0.09956811 0.9950308 0 -0.04984451 0.9987569 0 -0.04984451 0.9987569 0 0 1 0 -0 1 0 0.04984451 0.9987569 0 0.04984451 0.9987569 0 0.09956811 0.9950308 0 0.09956811 0.9950308 0 0.1490422 0.9888308 0 0.1490422 0.9888308 0 0.1981483 0.9801721 0 0.1981483 0.9801721 0 0.2467564 0.9690775 -0 0.2947583 0.9555718 0 0.2467564 0.9690775 0 0.2947583 0.9555718 -0 0.3420152 0.9396945 0 0.3420152 0.9396945 0 0.3884355 0.921476 0 0.3884355 0.921476 0 0.4338859 0.9009678 0 0.4338859 0.9009678 0 0.4782517 0.8782228 0 0.4782517 0.8782228 0 0.5214364 0.8532901 0 0.5214364 0.8532901 0 0.5633204 0.8262385 0 0.5633204 0.8262385 0 0.603805 0.797132 0 0.603805 0.797132 0 0.6427904 0.7660421 0 0.6427904 0.7660421 -0 0.6801585 0.7330651 0 0.6801585 0.7330651 0 0.715873 0.6982306 0 0.715873 0.6982306 0 0.7497818 0.6616852 0 0.7497818 0.6616852 0 0.7818292 0.6234926 -0 0.8119398 0.5837413 0 0.7818292 0.6234926 0 0.8119398 0.5837413 0 0.8400238 0.5425496 -0 0.8660331 0.4999867 0 0.8400238 0.5425496 0 0.8660331 0.4999867 0 0.8898678 0.4562185 -0 0.9115021 0.4112954 0 0.8898678 0.4562185 0 0.9115021 0.4112954 0 0.9308767 0.3653335 0 0.9308767 0.3653335 0 0.9479297 0.3184796 -0 0.9626188 0.27086 0 0.9479297 0.3184796 0 0.9626188 0.27086 0 0.9749302 0.2225107 0 0.9749302 0.2225107 0 0.9848094 0.1736389 0 0.9848094 0.1736389 0 0.99224 0.1243375 0 0.99224 0.1243375 0 0.9972037 0.07473118 0 0.9972037 0.07473118 -0 0.9996889 0.02494096 0 0.9996889 0.02494096 0 0.9996889 -0.02494096 0 0.9996889 -0.02494096 0 0.9972037 -0.07473118 0 0.9972037 -0.07473118 0 0.99224 -0.1243375 0 0.99224 -0.1243375 0 0.9848094 -0.1736389 0 0.9848094 -0.1736389 0 0.9749302 -0.2225107 0 0.9749302 -0.2225107 0 0.9626188 -0.27086 0 0.9626188 -0.27086 0 0.9479297 -0.3184796 0 0.9479297 -0.3184796 0 0.9308767 -0.3653335 0 0.9308767 -0.3653335 0 0.9115024 -0.4112947 0 0.9115024 -0.4112947 0 0.8898674 -0.4562192 0 0.8898674 -0.4562192 0 0.8660331 -0.4999867 0 0.8660331 -0.4999867 0 0.8400244 -0.5425487 0 0.8400244 -0.5425487 0 0.8119391 -0.5837422 0 0.8119391 -0.5837422 0 0.78183 -0.6234917 0 0.78183 -0.6234917 0 0.749781 -0.6616861 0 0.749781 -0.6616861 0 0.715873 -0.6982306 0 0.715873 -0.6982306 0 0.6801585 -0.7330651 0 0.6801585 -0.7330651 0 0.6427894 -0.766043 0 0.6427894 -0.766043 0 0.603805 -0.797132 0 0.603805 -0.797132 0 0.5633218 -0.8262376 0 0.5633218 -0.8262376 0 0.5214378 -0.8532894 0 0.5214378 -0.8532894 0 0.4782502 -0.8782237 0 0.4782502 -0.8782237 0 0.4338859 -0.9009678 0 0.4338859 -0.9009678 0 0.388437 -0.9214752 0 0.388437 -0.9214752 0 0.3420152 -0.9396945 0 0.3420152 -0.9396945 0 0.2947583 -0.9555718 0 0.2947583 -0.9555718 0 0.2467546 -0.9690779 0 0.2467546 -0.9690779 0 0.1981483 -0.9801721 0 0.1981483 -0.9801721 0 0.1490422 -0.9888308 0 0.1490422 -0.9888308 0 0.09956811 -0.9950308 0 0.09956811 -0.9950308 0 0.04984642 -0.9987568 0 0.04984642 -0.9987568 -0 -0 -1 0 0 -1 -0 -0.04984642 -0.9987568 0 -0.04984642 -0.9987568 -0 -0.09956811 -0.9950308 0 -0.09956811 -0.9950308 -0 -0.1490422 -0.9888308 0 -0.1490422 -0.9888308 -0 -0.1981483 -0.9801721 0 -0.1981483 -0.9801721 0 -0.2467546 -0.9690779 -0 -0.2467546 -0.9690779 0 -0.2947583 -0.9555718 -0 -0.2947583 -0.9555718 0 -0.3420152 -0.9396945 -0 -0.3420152 -0.9396945 0 -0.388437 -0.9214752 -0 -0.388437 -0.9214752 0 -0.4338859 -0.9009678 0 -0.4782502 -0.8782237 -0 -0.4338859 -0.9009678 0 -0.4782502 -0.8782237 0 -0.5214378 -0.8532894 -0 -0.5214378 -0.8532894 0 -0.5633218 -0.8262376 -0 -0.5633218 -0.8262376 0 -0.603805 -0.797132 -0 -0.603805 -0.797132 0 -0.6427894 -0.766043 -0 -0.6427894 -0.766043 0 -0.6801738 -0.7330509 -0 -0.6801738 -0.7330509 0 -0.7158577 -0.6982462 -0 -0.7158577 -0.6982462 -0 -0.749781 -0.6616861 0 -0.749781 -0.6616861 -0 -0.78183 -0.6234917 0 -0.78183 -0.6234917 -0 -0.8119391 -0.5837422 0 -0.8119391 -0.5837422 -0 -0.8400244 -0.5425487 0 -0.8400244 -0.5425487 -0 -0.8660331 -0.4999867 0 -0.8660331 -0.4999867 0 -0.8898674 -0.4562192 -0 -0.8898674 -0.4562192 0 -0.9115024 -0.4112947 -0 -0.9115024 -0.4112947 0 -0.9308767 -0.3653335 0 -0.9479297 -0.3184796 -0 -0.9308767 -0.3653335 0 -0.9479297 -0.3184796 0 -0.9626268 -0.2708317 -0 -0.9626268 -0.2708317 0 -0.9749236 -0.2225398 -0 -0.9749236 -0.2225398 0 -0.9848094 -0.1736389 -0 -0.9848094 -0.1736389 0 -0.99224 -0.1243375 -0 -0.99224 -0.1243375 0 -0.9972037 -0.07473118 0 -0.9996889 -0.02494096 -0 -0.9972037 -0.07473118 0 -0.9996889 -0.02494096 1 0 0 1 0 -0 1 0 0 1 0 -0 1 0 0 1 0 -0 1 0 0 1 0 -0 1 0 0 1 0 -0 1 0 0 1 0 -0 1 0 0 1 0 -0 1 0 0 1 0 -0 1 0 0 1 0 -0 1 0 0 1 0 -0 1 0 0 1 0 -0 1 0 0 1 0 -0 1 0 0 1 0 -0 1 0 0 1 0 -0 1 0 0 1 0 -0 1 0 0 1 0 -0 1 -0 -0 1 -0 -0 1 -0 -0 1 -0 -0 1 -0 -0 1 -0 -0 1 0 0 1 0 0 1 0 0 1 0 0 1 0 0 1 0 0 1 0 0 1 0 0 1 0 0 1 0 0 1 0 0 1 0 0 1 0 0 1 0 0 1 0 0 1 0 0 1 0 0 1 0 0 1 0 0 1 0 0 1 0 0 1 0 0 1 0 0 1 0 0 1 0 0 1 0 0 1 0 0 1 0 0 1 0 0 1 0 0 1 0 0 1 0 0 1 0 0 1 0 0 1 0 0 1 0 0 1 0 0 1 0 -0 1 0 -0 1 0 -0 1 0 -0 1 0 -0 1 0 -0 1 0 -0 1 0 -0 1 0 -0 1 0 -0 1 0 -0 1 0 -0 1 0 -0 1 0 -0 1 0 -0 1 0 -0 1 0 -0 1 0 -0 1 0 -0 1 0 -0 1 0 -0 1 0 -0 1 0 -0 1 0 -0 1 0 -0 1 0 -0 1 -0 0 1 -0 0 1 -0 0 1 -0 0 1 -0 0 1 -0 0 1 -0 0 1 -0 0 1 -0 0 1 -0 0 1 -0 0 1 -0 0 1 -0 0 1 -0 0 1 -0 0 1 -0 0 1 -0 0 1 -0 0 1 -0 0 1 -0 0 1 -0 0 1 0 0 1 -0 0 1 -0 0 1 -0 0 1 -0 0 1 -0 0 1 -0 0 1 -0 0 -1 -0 0 -1 -0 0 -1 -0 0 -1 -0 0 -1 0 0 -1 0 0 -1 0 0 -1 -0 0 -1 -0 0 -1 -0 0 -1 -0 0 -1 -0 0 -1 0 0 -1 0 0 -1 -0 0 -1 -0 0 -1 -0 0 -1 0 0 -1 0 0 -1 0 0 -1 0 0 -1 0 0 -1 0 0 -1 0 0 -1 -0 0 -1 -0 0 -1 0 0 -1 0 0 -1 0 0 -1 0 0 -1 0 0 -1 0 0 -1 0 0 -1 0 0 -1 0 0 -1 0 0 -1 0 0 -1 0 0 -1 0 0 -1 0 0 -1 0 0 -1 0 0 -1 0 0 -1 0 0 -1 0 0 -1 0 0 -1 0 0 -1 0 0 -1 0 0 -1 0 0 -1 0 0 -1 0 0 -1 0 0 -1 0 0 -1 0 0 -1 0 0 -1 0 0 -1 0 0 -1 0 0 -1 0 0 -1 0 0 -1 0 0 -1 0 0 -1 0 0 -1 0 0 -1 0 0 -1 0 0 -1 0 0 -1 0 0 -1 0 0 -1 0 0 -1 0 0 -1 0 0 -1 0 0 -1 0 0 -1 0 0 -1 0 0 -1 0 0 -1 0 0 -1 0 0 -1 0 0 -1 0 0 -1 0 0 -1 0 0 -1 0 0 -1 0 0 -1 0 0 -1 0 0 -1 0 0 -1 0 -0 -1 0 0 -1 0 0 -1 0 0 -1 -0 0 -1 0 0 -1 0 -0 -1 0 0 -1 -0 0 -1 0 0 -1 0 0 -1 0 0 -1 0 -0 -1 0 -0 -1 0 -0 -1 0 -0 -1 0 0 -1 0 -0 -1 0 -0 -1 0 0 -1 0 0 -1 0 0 -1 0 0 -1 0 0 -1 0 0 -1 0 -0 -1 0 0 -1 0 -0 -1 0 -0 -1 0 0 -1 0 -0 -1 0 -0 -1 0 0 -1 0 -0 -1 0 0 -0 0.9996889 0.02494096 0 0.9996889 0.02494096 0 0.9972037 0.07473118 0 0.99224 0.1243375 -0 0.9972037 0.07473118 0 0.99224 0.1243375 0 0.9848094 0.1736389 0 0.9749302 0.2225107 -0 0.9848094 0.1736389 0 0.9749302 0.2225107 0 0.9626188 0.27086 -0 0.9626188 0.27086 0 0.9479297 0.3184796 0 0.9308767 0.3653335 -0 0.9479297 0.3184796 0 0.9308767 0.3653335 0 0.9115021 0.4112954 -0 0.9115021 0.4112954 0 0.8898678 0.4562185 -0 0.8898678 0.4562185 -0 0.8660331 0.4999867 0 0.8660331 0.4999867 0 0.8400238 0.5425496 0 0.8400238 0.5425496 -0 0.8119398 0.5837413 0 0.8119398 0.5837413 -0 0.7818292 0.6234926 0 0.7818292 0.6234926 0 0.7497818 0.6616852 0 0.715873 0.6982306 -0 0.7497818 0.6616852 0 0.715873 0.6982306 0 0.6801585 0.7330651 -0 0.6801585 0.7330651 0 0.6427904 0.7660421 0 0.603805 0.797132 -0 0.6427904 0.7660421 0 0.603805 0.797132 0 0.5633204 0.8262385 -0 0.5633204 0.8262385 0 0.5214364 0.8532901 -0 0.5214364 0.8532901 0 0.4782517 0.8782228 -0 0.4782517 0.8782228 0 0.4338859 0.9009678 -0 0.4338859 0.9009678 0 0.3884355 0.921476 -0 0.3884355 0.921476 0 0.3420152 0.9396945 -0 0.3420152 0.9396945 0 0.2947583 0.9555718 -0 0.2947583 0.9555718 0 0.2467564 0.9690775 -0 0.2467564 0.9690775 0 0.1981483 0.9801721 0 0.1490422 0.9888308 -0 0.1981483 0.9801721 0 0.1490422 0.9888308 0 0.09956811 0.9950308 -0 0.09956811 0.9950308 0 0.04984451 0.9987569 -0 0.04984451 0.9987569 0 0 1 -0 0 1 0 -0.04984451 0.9987569 0 -0.04984451 0.9987569 0 -0.09956811 0.9950308 0 -0.09956811 0.9950308 0 -0.1490422 0.9888308 0 -0.1490422 0.9888308 0 -0.1981483 0.9801721 0 -0.1981483 0.9801721 0 -0.2467564 0.9690775 0 -0.2947583 0.9555718 0 -0.2467564 0.9690775 0 -0.2947583 0.9555718 0 -0.3420152 0.9396945 0 -0.3420152 0.9396945 0 -0.3884355 0.921476 0 -0.3884355 0.921476 0 -0.4338859 0.9009678 0 -0.4338859 0.9009678 0 -0.4782517 0.8782228 0 -0.4782517 0.8782228 0 -0.5214364 0.8532901 0 -0.5214364 0.8532901 0 -0.5633204 0.8262385 0 -0.5633204 0.8262385 0 -0.603805 0.797132 0 -0.603805 0.797132 0 -0.6427904 0.7660421 0 -0.6427904 0.7660421 0 -0.6801738 0.7330509 0 -0.6801738 0.7330509 0 -0.7158577 0.6982462 0 -0.7158577 0.6982462 0 -0.7497818 0.6616852 0 -0.7497818 0.6616852 0 -0.7818292 0.6234926 0 -0.8119398 0.5837413 0 -0.7818292 0.6234926 0 -0.8119398 0.5837413 0 -0.8400238 0.5425496 0 -0.8660331 0.4999867 0 -0.8400238 0.5425496 0 -0.8660331 0.4999867 0 -0.8898678 0.4562185 0 -0.9115021 0.4112954 0 -0.8898678 0.4562185 0 -0.9115021 0.4112954 0 -0.9308767 0.3653335 0 -0.9308767 0.3653335 0 -0.9479297 0.3184796 0 -0.9626268 0.2708317 0 -0.9479297 0.3184796 0 -0.9626268 0.2708317 0 -0.9749236 0.2225398 0 -0.9749236 0.2225398 0 -0.9848094 0.1736389 0 -0.9848094 0.1736389 0 -0.99224 0.1243375 0 -0.99224 0.1243375 0 -0.9972037 0.07473118 0 -0.9972037 0.07473118 0 -0.9996889 0.02494096 0 -0.9996889 0.02494096 -0 -0.9996889 -0.02494096 0 -0.9996889 -0.02494096 0 -0.9972037 -0.07473118 0 -0.9972037 -0.07473118 -0 -0.99224 -0.1243375 0 -0.99224 -0.1243375 -0 -0.9848094 -0.1736389 0 -0.9848094 -0.1736389 -0 -0.9749236 -0.2225398 0 -0.9749236 -0.2225398 0 -0.9626268 -0.2708317 0 -0.9626268 -0.2708317 -0 -0.9479297 -0.3184796 0 -0.9479297 -0.3184796 0 -0.9308767 -0.3653335 0 -0.9308767 -0.3653335 0 -0.9115024 -0.4112947 0 -0.9115024 -0.4112947 -0 -0.8898674 -0.4562192 0 -0.8898674 -0.4562192 0 -0.8660331 -0.4999867 0 -0.8660331 -0.4999867 0 -0.8400244 -0.5425487 0 -0.8400244 -0.5425487 0 -0.8119391 -0.5837422 0 -0.8119391 -0.5837422 -0 -0.78183 -0.6234917 0 -0.78183 -0.6234917 0 -0.749781 -0.6616861 0 -0.749781 -0.6616861 0 -0.7158577 -0.6982462 0 -0.7158577 -0.6982462 -0 -0.6801738 -0.7330509 0 -0.6801738 -0.7330509 0 -0.6427894 -0.766043 0 -0.6427894 -0.766043 0 -0.603805 -0.797132 0 -0.603805 -0.797132 0 -0.5633218 -0.8262376 0 -0.5633218 -0.8262376 -0 -0.5214378 -0.8532894 0 -0.5214378 -0.8532894 0 -0.4782502 -0.8782237 0 -0.4782502 -0.8782237 0 -0.4338859 -0.9009678 0 -0.4338859 -0.9009678 0 -0.388437 -0.9214752 0 -0.388437 -0.9214752 0 -0.3420152 -0.9396945 0 -0.3420152 -0.9396945 0 -0.2947583 -0.9555718 0 -0.2947583 -0.9555718 0 -0.2467546 -0.9690779 0 -0.2467546 -0.9690779 0 -0.1981483 -0.9801721 0 -0.1981483 -0.9801721 -0 -0.1490422 -0.9888308 0 -0.1490422 -0.9888308 0 -0.09956811 -0.9950308 0 -0.09956811 -0.9950308 0 -0.04984642 -0.9987568 0 -0.04984642 -0.9987568 0 0 -1 0 0 -1 0 0.04984642 -0.9987568 0 0.04984642 -0.9987568 0 0.09956811 -0.9950308 0 0.09956811 -0.9950308 0 0.1490422 -0.9888308 0 0.1490422 -0.9888308 0 0.1981483 -0.9801721 0 0.1981483 -0.9801721 0 0.2467546 -0.9690779 0 0.2467546 -0.9690779 0 0.2947583 -0.9555718 0 0.2947583 -0.9555718 0 0.3420152 -0.9396945 0 0.3420152 -0.9396945 0 0.388437 -0.9214752 0 0.388437 -0.9214752 0 0.4338859 -0.9009678 0 0.4782502 -0.8782237 0 0.4338859 -0.9009678 0 0.4782502 -0.8782237 0 0.5214378 -0.8532894 0 0.5214378 -0.8532894 0 0.5633218 -0.8262376 0 0.5633218 -0.8262376 0 0.603805 -0.797132 0 0.603805 -0.797132 0 0.6427894 -0.766043 0 0.6427894 -0.766043 0 0.6801585 -0.7330651 0 0.6801585 -0.7330651 0 0.715873 -0.6982306 0 0.715873 -0.6982306 0 0.749781 -0.6616861 0 0.749781 -0.6616861 0 0.78183 -0.6234917 0 0.78183 -0.6234917 0 0.8119391 -0.5837422 0 0.8119391 -0.5837422 0 0.8400244 -0.5425487 0 0.8400244 -0.5425487 0 0.8660331 -0.4999867 0 0.8660331 -0.4999867 0 0.8898674 -0.4562192 0 0.8898674 -0.4562192 0 0.9115024 -0.4112947 0 0.9115024 -0.4112947 0 0.9308767 -0.3653335 0 0.9479297 -0.3184796 0 0.9308767 -0.3653335 0 0.9479297 -0.3184796 0 0.9626188 -0.27086 0 0.9626188 -0.27086 0 0.9749302 -0.2225107 0 0.9749302 -0.2225107 0 0.9848094 -0.1736389 0 0.9848094 -0.1736389 0 0.99224 -0.1243375 0 0.99224 -0.1243375 0 0.9972037 -0.07473118 0 0.9996889 -0.02494096 0 0.9972037 -0.07473118 0 0.9996889 -0.02494096 1 0 0 1 0 0 1 0 0 1 0 0 1 0 0 1 0 0 1 0 0 1 0 0 1 0 0 1 0 0 1 0 0 1 0 0 1 0 0 1 0 0 1 0 0 1 0 0 1 0 0 1 0 0 1 0 0 1 0 0 1 0 0 1 0 0 1 0 0 1 0 0 1 0 0 1 0 0 1 0 0 1 0 0 1 0 0 1 0 0 1 0 0 1 0 0 1 0 0 1 0 0 1 0 0 1 0 0 1 0 0 1 0 0 1 0 0 1 0 0 1 0 0 1 0 0 1 0 0 1 0 0 1 0 0 1 0 0 1 0 0 1 0 0 1 0 0 1 0 0 1 0 0 1 0 0 1 0 0 1 0 0 1 0 0 1 0 0 1 0 0 1 0 0 1 0 0 1 0 0 1 0 0 1 0 0 1 0 0 1 0 0 1 0 0 1 0 0 1 0 0 1 0 0 1 0 0 1 0 0 1 0 0 1 -0 0 1 0 0 1 0 0 1 0 0 1 0 0 1 0 0 1 0 0 1 0 0 1 0 0 1 0 0 1 0 0 1 0 0 1 0 0 1 0 0 1 -0 0 1 0 0 1 0 0 1 0 0 1 -0 0 1 -0 0 1 0 0 1 -0 0 1 0 0 1 0 0 1 0 0 1 0 0 1 0 0 1 0 0 1 0 0 1 0 0 1 0 0 1 0 0 1 0 0 1 0 0 1 0 0 1 0 0 1 0 0 1 0 0 1 0 0 1 0 0 1 0 0 1 0 0 1 0 0 1 0 0 1 0 0 1 0 0 1 -0 0 1 0 0 1 0 0 1 0 0 1 0 0 1 0 0 1 -0 0</float_array>
          <technique_common>
            <accessor count="1020" source="#cubenormals-array0-array" stride="3">
              <param type="float" name="X"/>
              <param type="float" name="Y"/>
              <param type="float" name="Z"/>
            </accessor>
          </technique_common>
        </source>
        <vertices id="cubeverts-array0-vertices">
          <input semantic="POSITION" source="#cubeverts-array0"/>
        </vertices>
        <triangles count="1020" material="ref_col_chassis_col_obj_shape001">
          <input offset="0" semantic="VERTEX" source="#cubeverts-array0-vertices"/>
          <input offset="1" semantic="NORMAL" source="#cubenormals-array0"/>
          <p>0 0 1 0 2 0 2 1 3 1 0 1 0 2 4 2 1 2 3 3 5 3 0 3 0 4 6 4 4 4 5 5 7 5 0 5 0 6 8 6 6 6 7 7 9 7 0 7 0 8 10 8 8 8 9 9 11 9 0 9 0 10 12 10 10 10 11 11 13 11 0 11 0 12 14 12 12 12 13 13 15 13 0 13 0 14 16 14 14 14 15 15 17 15 0 15 0 16 18 16 16 16 17 17 19 17 0 17 0 18 20 18 18 18 0 19 21 19 20 19 0 20 22 20 21 20 0 21 23 21 22 21 0 22 24 22 23 22 0 23 25 23 24 23 26 24 27 24 0 24 0 25 27 25 25 25 26 26 28 26 27 26 26 27 29 27 28 27 26 28 30 28 29 28 26 29 31 29 30 29 26 30 32 30 31 30 26 31 33 31 32 31 26 32 34 32 33 32 26 33 35 33 34 33 26 34 36 34 35 34 26 35 37 35 36 35 26 36 38 36 37 36 26 37 39 37 38 37 26 38 40 38 39 38 26 39 41 39 40 39 26 40 42 40 41 40 43 41 44 41 45 41 45 42 44 42 46 42 46 43 44 43 47 43 47 44 44 44 48 44 48 45 44 45 49 45 49 46 44 46 50 46 50 47 44 47 51 47 51 48 44 48 52 48 52 49 44 49 53 49 53 50 44 50 54 50 54 51 44 51 55 51 55 52 44 52 56 52 56 53 44 53 57 53 57 54 44 54 58 54 58 55 44 55 59 55 59 56 44 56 60 56 60 57 44 57 61 57 61 58 44 58 62 58 62 59 44 59 63 59 63 60 44 60 64 60 64 61 44 61 65 61 65 62 44 62 19 62 19 63 44 63 0 63 26 64 66 64 42 64 43 65 67 65 44 65 26 66 68 66 66 66 67 67 69 67 44 67 26 68 70 68 68 68 69 69 71 69 44 69 26 70 72 70 70 70 71 71 73 71 44 71 26 72 74 72 72 72 73 73 75 73 44 73 75 74 76 74 44 74 76 75 77 75 44 75 77 76 78 76 44 76 78 77 79 77 44 77 79 78 80 78 44 78 80 79 81 79 44 79 81 80 82 80 44 80 82 81 83 81 44 81 83 82 84 82 44 82 84 83 85 83 44 83 85 84 86 84 44 84 87 85 88 85 89 85 89 86 88 86 90 86 90 87 88 87 91 87 91 88 88 88 92 88 92 89 88 89 93 89 93 90 88 90 94 90 94 91 88 91 95 91 95 92 88 92 96 92 96 93 88 93 97 93 97 94 88 94 98 94 98 95 88 95 99 95 99 96 88 96 100 96 100 97 88 97 101 97 101 98 88 98 102 98 102 99 88 99 103 99 103 100 88 100 104 100 104 101 88 101 105 101 105 102 88 102 106 102 106 103 88 103 107 103 107 104 88 104 108 104 108 105 88 105 109 105 109 106 88 106 110 106 110 107 88 107 111 107 111 108 88 108 112 108 112 109 88 109 113 109 113 110 88 110 114 110 114 111 88 111 115 111 86 112 88 112 44 112 115 113 88 113 116 113 116 114 88 114 117 114 117 115 88 115 86 115 118 116 88 116 119 116 119 117 88 117 120 117 120 118 88 118 121 118 121 119 88 119 122 119 122 120 88 120 123 120 123 121 88 121 87 121 26 122 88 122 118 122 26 123 118 123 124 123 26 124 124 124 125 124 26 125 125 125 126 125 26 126 126 126 127 126 26 127 127 127 128 127 26 128 128 128 129 128 26 129 129 129 74 129 130 130 26 130 131 130 131 131 26 131 0 131 26 132 130 132 88 132 88 133 130 133 132 133 131 134 0 134 44 134 131 135 44 135 133 135 88 136 132 136 44 136 44 137 132 137 133 137 86 138 85 138 134 138 134 139 85 139 135 139 135 140 84 140 136 140 136 141 84 141 137 141 85 142 84 142 135 142 84 143 83 143 137 143 137 144 82 144 138 144 138 145 82 145 139 145 83 146 82 146 137 146 82 147 81 147 139 147 139 148 80 148 140 148 81 149 80 149 139 149 140 150 79 150 141 150 141 151 79 151 142 151 80 152 79 152 140 152 79 153 78 153 142 153 142 154 77 154 143 154 78 155 77 155 142 155 143 156 76 156 144 156 77 157 76 157 143 157 76 158 75 158 144 158 144 159 75 159 145 159 145 160 75 160 146 160 75 161 73 161 146 161 73 162 71 162 146 162 146 163 71 163 147 163 71 164 69 164 147 164 147 165 69 165 148 165 148 166 67 166 149 166 149 167 67 167 150 167 69 168 67 168 148 168 67 169 43 169 150 169 150 170 45 170 151 170 43 171 45 171 150 171 151 172 46 172 152 172 152 173 46 173 153 173 45 174 46 174 151 174 46 175 47 175 153 175 153 176 48 176 154 176 47 177 48 177 153 177 154 178 49 178 155 178 48 179 49 179 154 179 155 180 50 180 156 180 49 181 50 181 155 181 156 182 51 182 157 182 50 183 51 183 156 183 157 184 52 184 158 184 51 185 52 185 157 185 158 186 53 186 159 186 52 187 53 187 158 187 159 188 54 188 160 188 53 189 54 189 159 189 160 190 55 190 161 190 54 191 55 191 160 191 161 192 56 192 162 192 162 193 56 193 163 193 55 194 56 194 161 194 56 195 57 195 163 195 163 196 58 196 164 196 57 197 58 197 163 197 164 198 59 198 165 198 58 199 59 199 164 199 165 200 60 200 166 200 59 201 60 201 165 201 166 202 61 202 167 202 60 203 61 203 166 203 167 204 62 204 168 204 61 205 62 205 167 205 168 206 63 206 169 206 62 207 63 207 168 207 169 208 64 208 170 208 63 209 64 209 169 209 170 210 65 210 171 210 171 211 65 211 172 211 64 212 65 212 170 212 65 213 19 213 172 213 172 214 19 214 173 214 19 215 17 215 173 215 17 216 15 216 173 216 173 217 15 217 174 217 15 218 13 218 174 218 174 219 13 219 175 219 13 220 11 220 175 220 175 221 11 221 176 221 11 222 9 222 176 222 176 223 9 223 177 223 9 224 7 224 177 224 177 225 7 225 178 225 7 226 5 226 178 226 178 227 5 227 179 227 5 228 3 228 179 228 179 229 3 229 180 229 180 230 3 230 181 230 3 231 2 231 181 231 181 232 1 232 182 232 2 233 1 233 181 233 182 234 4 234 183 234 1 235 4 235 182 235 183 236 6 236 184 236 184 237 6 237 185 237 4 238 6 238 183 238 6 239 8 239 185 239 185 240 10 240 186 240 186 241 10 241 187 241 8 242 10 242 185 242 10 243 12 243 187 243 187 244 14 244 188 244 188 245 14 245 189 245 12 246 14 246 187 246 14 247 16 247 189 247 189 248 18 248 190 248 16 249 18 249 189 249 190 250 20 250 191 250 191 251 20 251 192 251 18 252 20 252 190 252 20 253 21 253 192 253 192 254 22 254 193 254 21 255 22 255 192 255 193 256 23 256 194 256 22 257 23 257 193 257 194 258 24 258 195 258 23 259 24 259 194 259 24 260 25 260 195 260 195 261 25 261 196 261 196 262 25 262 197 262 25 263 27 263 197 263 197 264 27 264 198 264 27 265 28 265 198 265 28 266 29 266 198 266 198 267 29 267 199 267 199 268 29 268 200 268 29 269 30 269 200 269 200 270 30 270 201 270 30 271 31 271 201 271 201 272 31 272 202 272 31 273 32 273 202 273 32 274 33 274 202 274 202 275 33 275 203 275 203 276 33 276 204 276 33 277 34 277 204 277 34 278 35 278 204 278 204 279 35 279 205 279 35 280 36 280 205 280 205 281 36 281 206 281 206 282 36 282 207 282 36 283 37 283 207 283 37 284 38 284 207 284 207 285 38 285 208 285 38 286 39 286 208 286 208 287 39 287 209 287 39 288 40 288 209 288 209 289 40 289 210 289 210 290 40 290 211 290 40 291 41 291 211 291 41 292 42 292 211 292 211 293 42 293 212 293 42 294 66 294 212 294 212 295 66 295 213 295 213 296 66 296 214 296 66 297 68 297 214 297 68 298 70 298 214 298 214 299 70 299 215 299 70 300 72 300 215 300 215 301 72 301 216 301 216 302 74 302 217 302 72 303 74 303 216 303 217 304 74 304 218 304 74 305 129 305 218 305 218 306 128 306 219 306 129 307 128 307 218 307 219 308 127 308 220 308 128 309 127 309 219 309 220 310 126 310 221 310 127 311 126 311 220 311 126 312 125 312 221 312 221 313 125 313 222 313 125 314 124 314 222 314 222 315 124 315 223 315 124 316 118 316 223 316 223 317 118 317 224 317 118 318 119 318 224 318 224 319 119 319 225 319 225 320 119 320 226 320 119 321 120 321 226 321 120 322 121 322 226 322 226 323 121 323 227 323 121 324 122 324 227 324 227 325 122 325 228 325 122 326 123 326 228 326 228 327 123 327 229 327 123 328 87 328 229 328 229 329 87 329 230 329 87 330 89 330 230 330 230 331 89 331 231 331 89 332 90 332 231 332 231 333 90 333 232 333 90 334 91 334 232 334 232 335 91 335 233 335 233 336 92 336 234 336 91 337 92 337 233 337 234 338 93 338 235 338 92 339 93 339 234 339 235 340 94 340 236 340 93 341 94 341 235 341 236 342 95 342 237 342 94 343 95 343 236 343 237 344 96 344 238 344 238 345 96 345 239 345 95 346 96 346 237 346 96 347 97 347 239 347 239 348 98 348 240 348 97 349 98 349 239 349 240 350 99 350 241 350 98 351 99 351 240 351 241 352 100 352 242 352 99 353 100 353 241 353 242 354 101 354 243 354 100 355 101 355 242 355 243 356 102 356 244 356 101 357 102 357 243 357 244 358 103 358 245 358 102 359 103 359 244 359 103 360 104 360 245 360 245 361 104 361 246 361 104 362 105 362 246 362 246 363 105 363 247 363 105 364 106 364 247 364 247 365 106 365 248 365 106 366 107 366 248 366 248 367 107 367 249 367 107 368 108 368 249 368 249 369 108 369 250 369 250 370 109 370 251 370 108 371 109 371 250 371 251 372 110 372 252 372 109 373 110 373 251 373 252 374 111 374 253 374 253 375 111 375 254 375 110 376 111 376 252 376 111 377 112 377 254 377 254 378 113 378 255 378 112 379 113 379 254 379 255 380 114 380 256 380 113 381 114 381 255 381 256 382 115 382 257 382 114 383 115 383 256 383 257 384 116 384 258 384 115 385 116 385 257 385 258 386 117 386 259 386 259 387 117 387 134 387 116 388 117 388 258 388 117 389 86 389 134 389 133 390 260 390 261 390 261 391 262 391 133 391 133 392 263 392 260 392 262 393 264 393 133 393 133 394 265 394 263 394 264 395 266 395 133 395 133 396 267 396 265 396 266 397 268 397 133 397 133 398 269 398 267 398 268 399 270 399 133 399 133 400 271 400 269 400 270 401 272 401 133 401 133 402 273 402 271 402 272 403 274 403 133 403 133 404 275 404 273 404 274 405 276 405 133 405 133 406 277 406 275 406 276 407 278 407 133 407 133 408 279 408 277 408 278 409 280 409 133 409 133 410 281 410 279 410 280 411 282 411 133 411 133 412 283 412 281 412 282 413 284 413 133 413 133 414 285 414 283 414 284 415 286 415 133 415 133 416 287 416 285 416 286 417 288 417 133 417 133 418 289 418 287 418 288 419 290 419 133 419 133 420 291 420 289 420 290 421 292 421 133 421 292 422 293 422 133 422 293 423 294 423 133 423 294 424 295 424 133 424 295 425 296 425 133 425 296 426 297 426 133 426 297 427 298 427 133 427 291 428 132 428 299 428 299 429 132 429 300 429 300 430 132 430 301 430 301 431 132 431 302 431 302 432 132 432 303 432 303 433 132 433 304 433 304 434 132 434 305 434 305 435 132 435 306 435 306 436 132 436 307 436 307 437 132 437 308 437 308 438 132 438 309 438 309 439 132 439 310 439 310 440 132 440 311 440 311 441 132 441 312 441 312 442 132 442 313 442 133 443 132 443 291 443 132 444 314 444 313 444 132 445 315 445 314 445 132 446 316 446 315 446 132 447 317 447 316 447 132 448 318 448 317 448 132 449 319 449 318 449 132 450 320 450 319 450 132 451 321 451 320 451 132 452 322 452 321 452 132 453 323 453 322 453 132 454 324 454 323 454 132 455 325 455 324 455 132 456 326 456 325 456 132 457 327 457 326 457 132 458 328 458 327 458 132 459 329 459 328 459 132 460 330 460 329 460 132 461 331 461 330 461 132 462 332 462 331 462 132 463 333 463 332 463 132 464 334 464 333 464 335 465 131 465 336 465 336 466 131 466 337 466 337 467 131 467 338 467 338 468 131 468 339 468 339 469 131 469 340 469 340 470 131 470 341 470 341 471 131 471 342 471 342 472 131 472 343 472 343 473 131 473 344 473 344 474 131 474 345 474 298 475 131 475 133 475 345 476 131 476 346 476 346 477 131 477 347 477 347 478 131 478 348 478 348 479 131 479 349 479 349 480 131 480 350 480 350 481 131 481 351 481 351 482 131 482 352 482 352 483 131 483 353 483 353 484 131 484 354 484 354 485 131 485 355 485 355 486 131 486 356 486 356 487 131 487 357 487 357 488 131 488 358 488 358 489 131 489 359 489 359 490 131 490 298 490 360 491 130 491 361 491 361 492 130 492 362 492 362 493 130 493 363 493 363 494 130 494 364 494 364 495 130 495 365 495 365 496 130 496 366 496 366 497 130 497 367 497 367 498 130 498 368 498 368 499 130 499 369 499 369 500 130 500 370 500 370 501 130 501 371 501 371 502 130 502 372 502 372 503 130 503 373 503 373 504 130 504 374 504 374 505 130 505 375 505 375 506 130 506 376 506 376 507 130 507 377 507 377 508 130 508 378 508 378 509 130 509 379 509 379 510 130 510 335 510 335 511 130 511 131 511 132 512 130 512 334 512 334 513 130 513 380 513 380 514 130 514 381 514 381 515 130 515 382 515 382 516 130 516 383 516 383 517 130 517 384 517 384 518 130 518 385 518 385 519 130 519 360 519 213 520 217 520 212 520 214 521 217 521 213 521 215 522 217 522 214 522 216 523 217 523 215 523 210 524 208 524 209 524 211 525 208 525 210 525 208 526 206 526 207 526 217 527 220 527 212 527 212 528 220 528 211 528 218 529 220 529 217 529 219 530 220 530 218 530 221 531 222 531 220 531 204 532 202 532 203 532 205 533 202 533 204 533 222 534 225 534 220 534 223 535 225 535 222 535 224 536 225 536 223 536 211 537 200 537 208 537 220 538 200 538 211 538 208 539 200 539 206 539 225 540 200 540 220 540 202 541 200 541 201 541 206 542 200 542 205 542 205 543 200 543 202 543 226 544 227 544 225 544 227 545 228 545 225 545 199 546 197 546 198 546 200 547 197 547 199 547 200 548 196 548 197 548 229 549 230 549 228 549 196 550 194 550 195 550 231 551 232 551 230 551 230 552 232 552 228 552 194 553 192 553 193 553 196 554 191 554 194 554 200 555 191 555 196 555 194 556 191 556 192 556 235 557 236 557 234 557 234 558 236 558 233 558 200 559 188 559 191 559 190 560 188 560 189 560 191 561 188 561 190 561 225 562 188 562 200 562 237 563 238 563 236 563 238 564 239 564 236 564 236 565 239 565 233 565 188 566 186 566 187 566 240 567 241 567 239 567 239 568 241 568 233 568 186 569 184 569 185 569 186 570 182 570 184 570 184 571 182 571 183 571 243 572 244 572 242 572 232 573 181 573 228 573 188 574 181 574 186 574 225 575 181 575 188 575 186 576 181 576 182 576 228 577 181 577 225 577 242 578 245 578 241 578 244 579 245 579 242 579 245 580 246 580 241 580 232 581 179 581 181 581 181 582 179 582 180 582 247 583 248 583 246 583 246 584 249 584 241 584 248 585 249 585 246 585 178 586 176 586 177 586 179 587 176 587 178 587 250 588 251 588 249 588 249 589 251 589 241 589 251 590 252 590 241 590 174 591 172 591 173 591 254 592 255 592 253 592 172 593 170 593 171 593 175 594 170 594 174 594 176 595 170 595 175 595 232 596 170 596 179 596 179 597 170 597 176 597 174 598 170 598 172 598 255 599 256 599 253 599 253 600 257 600 252 600 252 601 257 601 241 601 256 602 257 602 253 602 169 603 167 603 168 603 258 604 259 604 257 604 169 605 166 605 167 605 170 606 166 606 169 606 259 607 135 607 257 607 134 608 135 608 259 608 136 609 137 609 135 609 170 610 162 610 166 610 164 611 162 611 163 611 165 612 162 612 164 612 166 613 162 613 165 613 135 614 138 614 257 614 137 615 138 615 135 615 162 616 160 616 161 616 170 617 159 617 162 617 162 618 159 618 160 618 232 619 159 619 170 619 233 620 159 620 232 620 139 621 141 621 138 621 140 622 141 622 139 622 138 623 141 623 257 623 142 624 143 624 141 624 158 625 156 625 157 625 144 626 145 626 143 626 143 627 145 627 141 627 155 628 153 628 154 628 156 629 153 629 155 629 159 630 153 630 158 630 158 631 153 631 156 631 233 632 152 632 159 632 159 633 152 633 153 633 148 634 149 634 147 634 241 635 150 635 233 635 146 636 150 636 145 636 147 637 150 637 146 637 152 638 150 638 151 638 145 639 150 639 141 639 141 640 150 640 257 640 233 641 150 641 152 641 149 642 150 642 147 642 257 643 150 643 241 643 335 644 336 644 386 644 386 645 336 645 387 645 387 646 337 646 388 646 388 647 337 647 389 647 336 648 337 648 387 648 337 649 338 649 389 649 389 650 339 650 390 650 390 651 339 651 391 651 338 652 339 652 389 652 339 653 340 653 391 653 391 654 341 654 392 654 340 655 341 655 391 655 392 656 342 656 393 656 393 657 342 657 394 657 341 658 342 658 392 658 342 659 343 659 394 659 394 660 344 660 395 660 343 661 344 661 394 661 395 662 345 662 396 662 344 663 345 663 395 663 345 664 346 664 396 664 396 665 346 665 397 665 397 666 346 666 398 666 346 667 347 667 398 667 347 668 348 668 398 668 398 669 348 669 399 669 348 670 349 670 399 670 399 671 349 671 400 671 400 672 350 672 401 672 401 673 350 673 402 673 349 674 350 674 400 674 350 675 351 675 402 675 402 676 352 676 403 676 351 677 352 677 402 677 403 678 353 678 404 678 404 679 353 679 405 679 352 680 353 680 403 680 353 681 354 681 405 681 405 682 355 682 406 682 354 683 355 683 405 683 406 684 356 684 407 684 355 685 356 685 406 685 407 686 357 686 408 686 356 687 357 687 407 687 408 688 358 688 409 688 357 689 358 689 408 689 409 690 359 690 410 690 358 691 359 691 409 691 410 692 298 692 411 692 359 693 298 693 410 693 411 694 297 694 412 694 298 695 297 695 411 695 412 696 296 696 413 696 297 697 296 697 412 697 413 698 295 698 414 698 414 699 295 699 415 699 296 700 295 700 413 700 295 701 294 701 415 701 415 702 293 702 416 702 294 703 293 703 415 703 416 704 292 704 417 704 293 705 292 705 416 705 417 706 290 706 418 706 292 707 290 707 417 707 418 708 288 708 419 708 290 709 288 709 418 709 419 710 286 710 420 710 288 711 286 711 419 711 420 712 284 712 421 712 286 713 284 713 420 713 421 714 282 714 422 714 284 715 282 715 421 715 422 716 280 716 423 716 423 717 280 717 424 717 282 718 280 718 422 718 280 719 278 719 424 719 424 720 278 720 425 720 278 721 276 721 425 721 276 722 274 722 425 722 425 723 274 723 426 723 274 724 272 724 426 724 426 725 272 725 427 725 272 726 270 726 427 726 427 727 270 727 428 727 270 728 268 728 428 728 428 729 268 729 429 729 268 730 266 730 429 730 429 731 266 731 430 731 266 732 264 732 430 732 430 733 264 733 431 733 264 734 262 734 431 734 431 735 262 735 432 735 432 736 262 736 433 736 262 737 261 737 433 737 433 738 260 738 434 738 261 739 260 739 433 739 434 740 263 740 435 740 260 741 263 741 434 741 435 742 265 742 436 742 436 743 265 743 437 743 263 744 265 744 435 744 265 745 267 745 437 745 437 746 269 746 438 746 438 747 269 747 439 747 267 748 269 748 437 748 269 749 271 749 439 749 439 750 273 750 440 750 440 751 273 751 441 751 271 752 273 752 439 752 273 753 275 753 441 753 441 754 277 754 442 754 275 755 277 755 441 755 442 756 279 756 443 756 443 757 279 757 444 757 277 758 279 758 442 758 279 759 281 759 444 759 444 760 283 760 445 760 281 761 283 761 444 761 445 762 285 762 446 762 283 763 285 763 445 763 446 764 287 764 447 764 285 765 287 765 446 765 287 766 289 766 447 766 447 767 289 767 448 767 448 768 289 768 449 768 289 769 291 769 449 769 449 770 291 770 450 770 291 771 299 771 450 771 299 772 300 772 450 772 450 773 300 773 451 773 451 774 300 774 452 774 300 775 301 775 452 775 452 776 301 776 453 776 301 777 302 777 453 777 453 778 302 778 454 778 302 779 303 779 454 779 303 780 304 780 454 780 454 781 304 781 455 781 455 782 304 782 456 782 304 783 305 783 456 783 305 784 306 784 456 784 456 785 306 785 457 785 306 786 307 786 457 786 457 787 307 787 458 787 458 788 307 788 459 788 307 789 308 789 459 789 308 790 309 790 459 790 459 791 309 791 460 791 309 792 310 792 460 792 460 793 310 793 461 793 310 794 311 794 461 794 461 795 311 795 462 795 462 796 311 796 463 796 311 797 312 797 463 797 312 798 313 798 463 798 463 799 313 799 464 799 313 800 314 800 464 800 464 801 314 801 465 801 465 802 314 802 466 802 314 803 315 803 466 803 315 804 316 804 466 804 466 805 316 805 467 805 316 806 317 806 467 806 467 807 317 807 468 807 468 808 318 808 469 808 317 809 318 809 468 809 469 810 318 810 470 810 318 811 319 811 470 811 470 812 320 812 471 812 319 813 320 813 470 813 471 814 321 814 472 814 320 815 321 815 471 815 472 816 322 816 473 816 321 817 322 817 472 817 322 818 323 818 473 818 473 819 323 819 474 819 323 820 324 820 474 820 474 821 324 821 475 821 324 822 325 822 475 822 475 823 325 823 476 823 325 824 326 824 476 824 476 825 326 825 477 825 477 826 326 826 478 826 326 827 327 827 478 827 327 828 328 828 478 828 478 829 328 829 479 829 328 830 329 830 479 830 479 831 329 831 480 831 329 832 330 832 480 832 480 833 330 833 481 833 330 834 331 834 481 834 481 835 331 835 482 835 331 836 332 836 482 836 482 837 332 837 483 837 332 838 333 838 483 838 483 839 333 839 484 839 333 840 334 840 484 840 484 841 334 841 485 841 485 842 380 842 486 842 334 843 380 843 485 843 486 844 381 844 487 844 380 845 381 845 486 845 487 846 382 846 488 846 381 847 382 847 487 847 488 848 383 848 489 848 382 849 383 849 488 849 489 850 384 850 490 850 490 851 384 851 491 851 383 852 384 852 489 852 384 853 385 853 491 853 491 854 360 854 492 854 385 855 360 855 491 855 492 856 361 856 493 856 360 857 361 857 492 857 493 858 362 858 494 858 361 859 362 859 493 859 494 860 363 860 495 860 362 861 363 861 494 861 495 862 364 862 496 862 363 863 364 863 495 863 496 864 365 864 497 864 364 865 365 865 496 865 365 866 366 866 497 866 497 867 366 867 498 867 366 868 367 868 498 868 498 869 367 869 499 869 367 870 368 870 499 870 499 871 368 871 500 871 368 872 369 872 500 872 500 873 369 873 501 873 369 874 370 874 501 874 501 875 370 875 502 875 502 876 371 876 503 876 370 877 371 877 502 877 503 878 372 878 504 878 371 879 372 879 503 879 504 880 373 880 505 880 505 881 373 881 506 881 372 882 373 882 504 882 373 883 374 883 506 883 506 884 375 884 507 884 374 885 375 885 506 885 507 886 376 886 508 886 375 887 376 887 507 887 508 888 377 888 509 888 376 889 377 889 508 889 509 890 378 890 510 890 377 891 378 891 509 891 510 892 379 892 511 892 511 893 379 893 386 893 378 894 379 894 510 894 379 895 335 895 386 895 493 896 494 896 495 896 501 897 498 897 499 897 501 898 499 898 500 898 504 899 501 899 502 899 504 900 502 900 503 900 488 901 489 901 490 901 488 902 490 902 491 902 488 903 491 903 492 903 488 904 492 904 493 904 488 905 493 905 495 905 505 906 501 906 504 906 487 907 495 907 496 907 487 908 496 908 497 908 487 909 488 909 495 909 507 910 505 910 506 910 485 911 486 911 487 911 485 912 497 912 498 912 485 913 498 913 501 913 485 914 487 914 497 914 508 915 505 915 507 915 510 916 508 916 509 916 480 917 481 917 482 917 480 918 482 918 483 918 480 919 483 919 484 919 387 920 510 920 511 920 387 921 511 921 386 921 387 922 508 922 510 922 388 923 501 923 505 923 388 924 505 924 508 924 388 925 508 925 387 925 476 926 477 926 478 926 476 927 478 927 479 927 392 928 388 928 389 928 392 929 389 929 390 929 392 930 390 930 391 930 392 931 501 931 388 931 473 932 474 932 475 932 472 933 476 933 479 933 472 934 473 934 475 934 472 935 475 935 476 935 396 936 394 936 395 936 397 937 392 937 393 937 397 938 393 938 394 938 397 939 501 939 392 939 397 940 394 940 396 940 397 941 485 941 501 941 397 942 484 942 485 942 469 943 472 943 479 943 469 944 470 944 471 944 469 945 471 945 472 945 469 946 479 946 480 946 467 947 468 947 469 947 465 948 467 948 469 948 465 949 466 949 467 949 402 950 397 950 398 950 402 951 398 951 399 951 402 952 399 952 400 952 402 953 400 953 401 953 463 954 465 954 469 954 463 955 464 955 465 955 405 956 402 956 403 956 405 957 403 957 404 957 405 958 484 958 397 958 405 959 469 959 480 959 405 960 397 960 402 960 405 961 480 961 484 961 461 962 462 962 463 962 459 963 461 963 463 963 459 964 460 964 461 964 457 965 405 965 406 965 457 966 463 966 469 966 457 967 469 967 405 967 457 968 459 968 463 968 457 969 458 969 459 969 411 970 407 970 408 970 411 971 408 971 409 971 411 972 409 972 410 972 454 973 455 973 456 973 413 974 406 974 407 974 413 975 411 975 412 975 413 976 407 976 411 976 453 977 454 977 456 977 414 978 406 978 413 978 452 979 453 979 456 979 451 980 452 980 456 980 451 981 457 981 406 981 451 982 456 982 457 982 416 983 414 983 415 983 418 984 414 984 416 984 418 985 416 985 417 985 419 986 414 986 418 986 447 987 448 987 449 987 420 988 414 988 419 988 446 989 447 989 449 989 445 990 446 990 449 990 445 991 449 991 450 991 422 992 420 992 421 992 422 993 414 993 420 993 444 994 445 994 450 994 442 995 444 995 450 995 442 996 443 996 444 996 442 997 450 997 451 997 425 998 422 998 423 998 425 999 423 999 424 999 441 1000 442 1000 451 1000 440 1001 441 1001 451 1001 428 1002 425 1002 426 1002 428 1003 426 1003 427 1003 428 1004 422 1004 425 1004 438 1005 439 1005 440 1005 430 1006 428 1006 429 1006 430 1007 422 1007 428 1007 431 1008 414 1008 422 1008 431 1009 422 1009 430 1009 435 1010 436 1010 437 1010 435 1011 437 1011 438 1011 435 1012 438 1012 440 1012 434 1013 451 1013 406 1013 434 1014 440 1014 451 1014 434 1015 435 1015 440 1015 433 1016 406 1016 414 1016 433 1017 431 1017 432 1017 433 1018 414 1018 431 1018 433 1019 434 1019 406 1019</p>
        </triangles>
      </mesh>
    </geometry>
  </library_geometries>
  <library_materials>
    <material id="mat_col_chassis_col_obj_shape001" name="col_chassis_col_obj_shape001">
      <instance_effect url="#effect_col_chassis_col_obj_shape001"/>
    </material>
  </library_materials>
  <library_visual_scenes>
    <visual_scene id="myscene">
      <node id="node0" name="node0">
        <instance_geometry url="#geometry0">
          <bind_material>
            <technique_common>
              <instance_material symbol="ref_col_chassis_col_obj_shape001" target="#mat_col_chassis_col_obj_shape001"/>
            </technique_common>
          </bind_material>
        </instance_geometry>
      </node>
    </visual_scene>
  </library_visual_scenes>
  <scene>
    <instance_visual_scene url="#myscene"/>
  </scene>
</COLLADA>
