<COLLADA xmlns="http://www.collada.org/2005/11/COLLADASchema" version="1.4.1">
  <asset>
    <contributor/>
    <created>2025-09-07T05:42:31.769176</created>
    <modified>2025-09-07T05:42:31.769179</modified>
    <unit name="meter" meter="1.0"/>
    <up_axis>Z_UP</up_axis>
  </asset>
  <library_effects>
    <effect id="effect_wheel2_shape001" name="effect_wheel2_shape001">
      <profile_COMMON>
        <technique sid="common">
          <phong>
            <emission>
              <color>0.0 0.0 0.0 1.0</color>
            </emission>
            <ambient>
              <color>0.0 0.0 0.0 1.0</color>
            </ambient>
            <diffuse>
              <color>0.4470590054988861 0.4745100140571594 0.5019609928131104 1.0</color>
            </diffuse>
            <specular>
              <color>1 1 1 1.0</color>
            </specular>
            <shininess>
              <float>0.0</float>
            </shininess>
            <reflective>
              <color>0.0 0.0 0.0 1.0</color>
            </reflective>
            <reflectivity>
              <float>0.0</float>
            </reflectivity>
            <transparent>
              <color>0.0 0.0 0.0 1.0</color>
            </transparent>
            <transparency>
              <float>1.0</float>
            </transparency>
          </phong>
        </technique>
        <extra>
          <technique profile="GOOGLEEARTH">
            <double_sided>0</double_sided>
          </technique>
        </extra>
      </profile_COMMON>
    </effect>
  </library_effects>
  <library_geometries>
    <geometry id="geometry0" name="wheel2_shape001">
      <mesh>
        <source id="cubeverts-array0">
          <float_array count="1512" id="cubeverts-array0-array">0.015 0 0 0.01498135 0.0007476883 0 0.015 0 0.01 0.01498135 0.0007476883 0.01 0.01492546 0.001493518 0 0.01492546 0.001493518 0.01 0.01483246 0.002235634 0.01 0.01483246 0.002235634 0 0.01470259 0.002972192 0 0.01470259 0.002972192 0.01 0.01453616 0.003701361 0.01 0.01453616 0.003701361 0 0.01433359 0.004421328 0 0.01433359 0.004421328 0.01 0.01409539 0.005130302 0 0.01409539 0.005130302 0.01 0.01382214 0.005826522 0.01 0.01382214 0.005826522 0 0.01351453 0.006508256 0 0.01351453 0.006508256 0.01 0.01317332 0.00717381 0 0.01317332 0.00717381 0.01 0.01279936 0.007821528 0 0.01279936 0.007821528 0.01 0.01239358 0.0084498 0.01 0.01239358 0.0084498 0 0.01195699 0.009057066 0 0.01195699 0.009057066 0.01 0.01149067 0.009641814 0 0.01149067 0.009641814 0.01 0.01099578 0.01020259 0 0.01099578 0.01020259 0.01 0.01047355 0.010738 0.01 0.01047355 0.010738 0 0.009925287 0.01124672 0 0.009925287 0.01124672 0.01 0.009352347 0.01172747 0 0.009352347 0.01172747 0.01 0.008756155 0.01217907 0.01 0.008756155 0.01217907 0 0.008138194 0.01260039 0 0.008138194 0.01260039 0.01 0.0075 0.01299038 0 0.0075 0.01299038 0.01 0.00684316 0.01334808 0 0.00684316 0.01334808 0.01 0.006169307 0.01367259 0 0.006169307 0.01367259 0.01 0.005480115 0.01396311 0 0.005480115 0.01396311 0.01 0.0047773 0.01421891 0 0.0047773 0.01421891 0.01 0.004062607 0.01443936 0 0.004062607 0.01443936 0.01 0.003337814 0.01462392 0 0.003337814 0.01462392 0.01 0.002604723 0.01477212 0 0.002604723 0.01477212 0.01 0.001865156 0.01488359 0.01 0.001865156 0.01488359 0 0.001120951 0.01495806 0 0.001120951 0.01495806 0.01 0.0003739604 0.01499534 0 0.0003739604 0.01499534 0.01 -0.0003739604 0.01499534 0 -0.0003739604 0.01499534 0.01 -0.001120951 0.01495806 0 -0.001120951 0.01495806 0.01 -0.001865156 0.01488359 0 -0.001865156 0.01488359 0.01 -0.002604723 0.01477212 0 -0.002604723 0.01477212 0.01 -0.003337814 0.01462392 0 -0.003337814 0.01462392 0.01 -0.004062607 0.01443936 0 -0.004062607 0.01443936 0.01 -0.0047773 0.01421891 0.01 -0.0047773 0.01421891 0 -0.005480115 0.01396311 0.01 -0.005480115 0.01396311 0 -0.006169307 0.01367259 0 -0.006169307 0.01367259 0.01 -0.00684316 0.01334808 0 -0.00684316 0.01334808 0.01 -0.0075 0.01299038 0 -0.0075 0.01299038 0.01 -0.008138194 0.01260039 0 -0.008138194 0.01260039 0.01 -0.008756155 0.01217907 0 -0.008756155 0.01217907 0.01 -0.009352347 0.01172747 0 -0.009352347 0.01172747 0.01 -0.009925287 0.01124672 0 -0.009925287 0.01124672 0.01 -0.01047355 0.010738 0.01 -0.01047355 0.010738 0 -0.01099578 0.01020259 0 -0.01099578 0.01020259 0.01 -0.01149067 0.009641814 0 -0.01149067 0.009641814 0.01 -0.01195699 0.009057066 0 -0.01195699 0.009057066 0.01 -0.01239358 0.0084498 0.01 -0.01239358 0.0084498 0 -0.01279936 0.007821528 0 -0.01279936 0.007821528 0.01 -0.01317332 0.00717381 0.01 -0.01317332 0.00717381 0 -0.01351453 0.006508256 0 -0.01351453 0.006508256 0.01 -0.01382214 0.005826522 0.01 -0.01382214 0.005826522 0 -0.01409539 0.005130302 0 -0.01409539 0.005130302 0.01 -0.01433359 0.004421328 0 -0.01433359 0.004421328 0.01 -0.01453616 0.003701361 0.01 -0.01453616 0.003701361 0 -0.01470259 0.002972192 0 -0.01470259 0.002972192 0.01 -0.01483246 0.002235634 0 -0.01483246 0.002235634 0.01 -0.01492546 0.001493518 0 -0.01492546 0.001493518 0.01 -0.01498135 0.0007476883 0 -0.01498135 0.0007476883 0.01 -0.015 -5.145373e-17 0.01 -0.015 -5.145373e-17 0 -0.01498135 -0.0007476883 0.01 -0.01498135 -0.0007476883 0 -0.01492546 -0.001493518 0 -0.01492546 -0.001493518 0.01 -0.01483246 -0.002235634 0.01 -0.01483246 -0.002235634 0 -0.01470259 -0.002972192 0.01 -0.01470259 -0.002972192 0 -0.01453616 -0.003701361 0.01 -0.01453616 -0.003701361 0 -0.01433359 -0.004421328 0 -0.01433359 -0.004421328 0.01 -0.01409539 -0.005130302 0.01 -0.01409539 -0.005130302 0 -0.01382214 -0.005826522 0 -0.01382214 -0.005826522 0.01 -0.01351453 -0.006508256 0 -0.01351453 -0.006508256 0.01 -0.01317332 -0.00717381 0.01 -0.01317332 -0.00717381 0 -0.01279936 -0.007821528 0 -0.01279936 -0.007821528 0.01 -0.01239358 -0.0084498 0 -0.01239358 -0.0084498 0.01 -0.01195699 -0.009057066 0 -0.01195699 -0.009057066 0.01 -0.01149067 -0.009641814 0.01 -0.01149067 -0.009641814 0 -0.01099578 -0.01020259 0 -0.01099578 -0.01020259 0.01 -0.01047355 -0.010738 0 -0.01047355 -0.010738 0.01 -0.009925287 -0.01124672 0.01 -0.009925287 -0.01124672 0 -0.009352347 -0.01172747 0 -0.009352347 -0.01172747 0.01 -0.008756155 -0.01217907 0 -0.008756155 -0.01217907 0.01 -0.008138194 -0.01260039 0 -0.008138194 -0.01260039 0.01 -0.0075 -0.01299038 0.01 -0.0075 -0.01299038 0 -0.00684316 -0.01334808 0 -0.00684316 -0.01334808 0.01 -0.006169307 -0.01367259 0 -0.006169307 -0.01367259 0.01 -0.005480115 -0.01396311 0 -0.005480115 -0.01396311 0.01 -0.0047773 -0.01421891 0 -0.0047773 -0.01421891 0.01 -0.004062607 -0.01443936 0 -0.004062607 -0.01443936 0.01 -0.003337814 -0.01462392 0 -0.003337814 -0.01462392 0.01 -0.002604723 -0.01477212 0 -0.002604723 -0.01477212 0.01 -0.001865156 -0.01488359 0.01 -0.001865156 -0.01488359 0 -0.001120951 -0.01495806 0 -0.001120951 -0.01495806 0.01 -0.0003739604 -0.01499534 0 -0.0003739604 -0.01499534 0.01 0.0003739604 -0.01499534 0 0.0003739604 -0.01499534 0.01 0.001120951 -0.01495806 0 0.001120951 -0.01495806 0.01 0.001865156 -0.01488359 0 0.001865156 -0.01488359 0.01 0.002604723 -0.01477212 0 0.002604723 -0.01477212 0.01 0.003337814 -0.01462392 0 0.003337814 -0.01462392 0.01 0.004062607 -0.01443936 0 0.004062607 -0.01443936 0.01 0.0047773 -0.01421891 0 0.0047773 -0.01421891 0.01 0.005480115 -0.01396311 0 0.005480115 -0.01396311 0.01 0.006169307 -0.01367259 0 0.006169307 -0.01367259 0.01 0.00684316 -0.01334808 0 0.00684316 -0.01334808 0.01 0.0075 -0.01299038 0.01 0.0075 -0.01299038 0 0.008138194 -0.01260039 0 0.008138194 -0.01260039 0.01 0.008756155 -0.01217907 0 0.008756155 -0.01217907 0.01 0.009352347 -0.01172747 0 0.009352347 -0.01172747 0.01 0.009925287 -0.01124672 0 0.009925287 -0.01124672 0.01 0.01047355 -0.010738 0 0.01047355 -0.010738 0.01 0.01099578 -0.01020259 0 0.01099578 -0.01020259 0.01 0.01149067 -0.009641814 0 0.01149067 -0.009641814 0.01 0.01195699 -0.009057066 0 0.01195699 -0.009057066 0.01 0.01239358 -0.0084498 0 0.01239358 -0.0084498 0.01 0.01279936 -0.007821528 0 0.01279936 -0.007821528 0.01 0.01317332 -0.00717381 0 0.01317332 -0.00717381 0.01 0.01351453 -0.006508256 0 0.01351453 -0.006508256 0.01 0.01382214 -0.005826522 0 0.01382214 -0.005826522 0.01 0.01409539 -0.005130302 0 0.01409539 -0.005130302 0.01 0.01433359 -0.004421328 0.01 0.01433359 -0.004421328 0 0.01453616 -0.003701361 0 0.01453616 -0.003701361 0.01 0.01470259 -0.002972192 0 0.01470259 -0.002972192 0.01 0.01483246 -0.002235634 0 0.01483246 -0.002235634 0.01 0.01492546 -0.001493518 0 0.01492546 -0.001493518 0.01 0.01498135 -0.0007476883 0 0.01498135 -0.0007476883 0.01 -0.003665259 -0.003400864 0.01 -0.003491184 -0.003579334 0.01 -0.003308429 -0.003748906 0.01 -0.003830222 -0.003213938 0.01 -0.003117449 -0.003909158 0.01 -0.003985662 -0.003019022 0.01 -0.002918718 -0.00405969 0.01 -0.004131194 -0.0028166 0.01 -0.002712731 -0.00420013 0.01 -0.004266454 -0.002607176 0.01 -0.0025 -0.004330127 0.01 -0.004391108 -0.00239127 0.01 -0.002281053 -0.004449359 0.01 -0.004504844 -0.002169419 0.01 -0.002056436 -0.004557529 0.01 -0.004607381 -0.001942174 0.01 -0.001826705 -0.004654369 0.01 -0.004698463 -0.001710101 0.01 -0.001592433 -0.004739637 0.01 -0.004777864 -0.001473776 0.01 -0.001354202 -0.004813121 0.01 -0.004845387 -0.001233787 0.01 -0.001112605 -0.00487464 0.01 -0.004900862 -0.0009907307 0.01 -0.0008682409 -0.004924039 0.01 -0.004944154 -0.0007452113 0.01 -0.0006217185 -0.004961196 0.01 -0.004975154 -0.0004978392 0.01 -0.0003736505 -0.004986019 0.01 -0.004993784 -0.0002492294 0.01 -0.0001246535 -0.004998446 0.01 -0.005 -1.715124e-17 0.01 0.0001246535 -0.004998446 0.01 -0.004993784 0.0002492294 0.01 0.0003736505 -0.004986019 0.01 -0.004975154 0.0004978392 0.01 0.0006217185 -0.004961196 0.01 -0.004944154 0.0007452113 0.01 0.0008682409 -0.004924039 0.01 -0.004900862 0.0009907307 0.01 0.001112605 -0.00487464 0.01 -0.004845387 0.001233787 0.01 0.001354202 -0.004813121 0.01 -0.004777864 0.001473776 0.01 0.001592433 -0.004739637 0.01 -0.004698463 0.001710101 0.01 0.001826705 -0.004654369 0.01 -0.004607381 0.001942174 0.01 0.002056436 -0.004557529 0.01 -0.004504844 0.002169419 0.01 0.002281053 -0.004449359 0.01 -0.004391108 0.00239127 0.01 0.0025 -0.004330127 0.01 -0.004266454 0.002607176 0.01 0.002712731 -0.00420013 0.01 -0.004131194 0.0028166 0.01 0.002918718 -0.00405969 0.01 -0.003985662 0.003019022 0.01 0.003117449 -0.003909158 0.01 -0.003830222 0.003213938 0.01 0.003308429 -0.003748906 0.01 -0.003665259 0.003400864 0.01 0.003491184 -0.003579334 0.01 0.003665259 -0.003400864 0.01 -0.003491184 0.003579334 0.01 -0.003308429 0.003748906 0.01 0.003830222 -0.003213938 0.01 -0.003117449 0.003909158 0.01 0.003985662 -0.003019022 0.01 -0.002918718 0.00405969 0.01 0.004131194 -0.0028166 0.01 -0.002712731 0.00420013 0.01 0.004266454 -0.002607176 0.01 0.004391108 -0.00239127 0.01 -0.0025 0.004330127 0.01 -0.002281053 0.004449359 0.01 -0.002056436 0.004557529 0.01 0.004504844 -0.002169419 0.01 0.004607381 -0.001942174 0.01 0.004698463 -0.001710101 0.01 -0.001826705 0.004654369 0.01 -0.001592433 0.004739637 0.01 0.004777864 -0.001473776 0.01 -0.001354202 0.004813121 0.01 0.004845387 -0.001233787 0.01 -0.001112605 0.00487464 0.01 -0.0008682409 0.004924039 0.01 0.004900862 -0.0009907307 0.01 0.004944154 -0.0007452113 0.01 -0.0006217185 0.004961196 0.01 -0.0003736505 0.004986019 0.01 0.004975154 -0.0004978392 0.01 0.004993784 -0.0002492294 0.01 -0.0001246535 0.004998446 0.01 0.005 0 0.01 0.0001246535 0.004998446 0.01 0.004993784 0.0002492294 0.01 0.0003736505 0.004986019 0.01 0.004975154 0.0004978392 0.01 0.0006217185 0.004961196 0.01 0.004944154 0.0007452113 0.01 0.0008682409 0.004924039 0.01 0.004900862 0.0009907307 0.01 0.004845387 0.001233787 0.01 0.001112605 0.00487464 0.01 0.001354202 0.004813121 0.01 0.004777864 0.001473776 0.01 0.001592433 0.004739637 0.01 0.004698463 0.001710101 0.01 0.001826705 0.004654369 0.01 0.004607381 0.001942174 0.01 0.004504844 0.002169419 0.01 0.002056436 0.004557529 0.01 0.002281053 0.004449359 0.01 0.0025 0.004330127 0.01 0.004391108 0.00239127 0.01 0.004266454 0.002607176 0.01 0.002712731 0.00420013 0.01 0.004131194 0.0028166 0.01 0.002918718 0.00405969 0.01 0.003985662 0.003019022 0.01 0.003830222 0.003213938 0.01 0.003117449 0.003909158 0.01 0.003308429 0.003748906 0.01 0.003665259 0.003400864 0.01 0.003491184 0.003579334 0.01 0.005 0 0.02 0.004993784 0.0002492294 0.02 0.004975154 0.0004978392 0.02 0.004944154 0.0007452113 0.02 0.004900862 0.0009907307 0.02 0.004845387 0.001233787 0.02 0.004777864 0.001473776 0.02 0.004698463 0.001710101 0.02 0.004607381 0.001942174 0.02 0.004504844 0.002169419 0.02 0.004391108 0.00239127 0.02 0.004266454 0.002607176 0.02 0.004131194 0.0028166 0.02 0.003985662 0.003019022 0.02 0.003830222 0.003213938 0.02 0.003665259 0.003400864 0.02 0.003491184 0.003579334 0.02 0.003308429 0.003748906 0.02 0.003117449 0.003909158 0.02 0.002918718 0.00405969 0.02 0.002712731 0.00420013 0.02 0.0025 0.004330127 0.02 0.002281053 0.004449359 0.02 0.002056436 0.004557529 0.02 0.001826705 0.004654369 0.02 0.001592433 0.004739637 0.02 0.001354202 0.004813121 0.02 0.001112605 0.00487464 0.02 0.0008682409 0.004924039 0.02 0.0006217185 0.004961196 0.02 0.0003736505 0.004986019 0.02 0.0001246535 0.004998446 0.02 -0.0001246535 0.004998446 0.02 -0.0003736505 0.004986019 0.02 -0.0006217185 0.004961196 0.02 -0.0008682409 0.004924039 0.02 -0.001112605 0.00487464 0.02 -0.001354202 0.004813121 0.02 -0.001592433 0.004739637 0.02 -0.001826705 0.004654369 0.02 -0.002056436 0.004557529 0.02 -0.002281053 0.004449359 0.02 -0.0025 0.004330127 0.02 -0.002712731 0.00420013 0.02 -0.002918718 0.00405969 0.02 -0.003117449 0.003909158 0.02 -0.003308429 0.003748906 0.02 -0.003491184 0.003579334 0.02 -0.003665259 0.003400864 0.02 -0.003830222 0.003213938 0.02 -0.003985662 0.003019022 0.02 -0.004131194 0.0028166 0.02 -0.004266454 0.002607176 0.02 -0.004391108 0.00239127 0.02 -0.004504844 0.002169419 0.02 -0.004607381 0.001942174 0.02 -0.004698463 0.001710101 0.02 -0.004777864 0.001473776 0.02 -0.004845387 0.001233787 0.02 -0.004900862 0.0009907307 0.02 -0.004944154 0.0007452113 0.02 -0.004975154 0.0004978392 0.02 -0.004993784 0.0002492294 0.02 -0.005 -1.715124e-17 0.02 -0.004993784 -0.0002492294 0.02 -0.004975154 -0.0004978392 0.02 -0.004944154 -0.0007452113 0.02 -0.004900862 -0.0009907307 0.02 -0.004845387 -0.001233787 0.02 -0.004777864 -0.001473776 0.02 -0.004698463 -0.001710101 0.02 -0.004607381 -0.001942174 0.02 -0.004504844 -0.002169419 0.02 -0.004391108 -0.00239127 0.02 -0.004266454 -0.002607176 0.02 -0.004131194 -0.0028166 0.02 -0.003985662 -0.003019022 0.02 -0.003830222 -0.003213938 0.02 -0.003665259 -0.003400864 0.02 -0.003491184 -0.003579334 0.02 -0.003308429 -0.003748906 0.02 -0.003117449 -0.003909158 0.02 -0.002918718 -0.00405969 0.02 -0.002712731 -0.00420013 0.02 -0.0025 -0.004330127 0.02 -0.002281053 -0.004449359 0.02 -0.002056436 -0.004557529 0.02 -0.001826705 -0.004654369 0.02 -0.001592433 -0.004739637 0.02 -0.001354202 -0.004813121 0.02 -0.001112605 -0.00487464 0.02 -0.0008682409 -0.004924039 0.02 -0.0006217185 -0.004961196 0.02 -0.0003736505 -0.004986019 0.02 -0.0001246535 -0.004998446 0.02 0.0001246535 -0.004998446 0.02 0.0003736505 -0.004986019 0.02 0.0006217185 -0.004961196 0.02 0.0008682409 -0.004924039 0.02 0.001112605 -0.00487464 0.02 0.001354202 -0.004813121 0.02 0.001592433 -0.004739637 0.02 0.001826705 -0.004654369 0.02 0.002056436 -0.004557529 0.02 0.002281053 -0.004449359 0.02 0.0025 -0.004330127 0.02 0.002712731 -0.00420013 0.02 0.002918718 -0.00405969 0.02 0.003117449 -0.003909158 0.02 0.003308429 -0.003748906 0.02 0.003491184 -0.003579334 0.02 0.003665259 -0.003400864 0.02 0.003830222 -0.003213938 0.02 0.003985662 -0.003019022 0.02 0.004131194 -0.0028166 0.02 0.004266454 -0.002607176 0.02 0.004391108 -0.00239127 0.02 0.004504844 -0.002169419 0.02 0.004607381 -0.001942174 0.02 0.004698463 -0.001710101 0.02 0.004777864 -0.001473776 0.02 0.004845387 -0.001233787 0.02 0.004900862 -0.0009907307 0.02 0.004944154 -0.0007452113 0.02 0.004975154 -0.0004978392 0.02 0.004993784 -0.0002492294 0.02</float_array>
          <technique_common>
            <accessor count="504" source="#cubeverts-array0-array" stride="3">
              <param type="float" name="X"/>
              <param type="float" name="Y"/>
              <param type="float" name="Z"/>
            </accessor>
          </technique_common>
        </source>
        <source id="cubenormals-array0">
          <float_array count="3012" id="cubenormals-array0-array">0.9996892 0.02493077 -0 0.9996892 0.02493077 0 0.9972038 0.07472982 0 0.9922392 0.124344 0 0.9972038 0.07472982 -0 0.9922392 0.124344 0 0.9848077 0.1736484 0 0.9749281 0.2225204 0 0.9848077 0.1736484 -0 0.9749281 0.2225204 0 0.9626243 0.2708403 0 0.9626243 0.2708403 -0 0.9479272 0.318487 0 0.9308739 0.3653406 0 0.9479272 0.318487 -0 0.9308739 0.3653406 0 0.9115056 0.4112875 0 0.9115056 0.4112875 -0 0.8898718 0.4562107 0 0.8898718 0.4562107 -0 0.8660254 0.5000001 -0 0.8660254 0.5000001 0 0.8400257 0.5425466 0 0.8400257 0.5425466 0 0.8119381 0.5837436 -0 0.8119381 0.5837436 0 0.7818316 0.6234896 -0 0.7818316 0.6234896 0 0.7497813 0.6616858 0 0.7158672 0.6982364 0 0.7497813 0.6616858 -0 0.7158672 0.6982364 0 0.6801725 0.7330521 0 0.6801725 0.7330521 -0 0.6427878 0.7660443 0 0.6038044 0.7971325 0 0.6427878 0.7660443 -0 0.6038044 0.7971325 0 0.5633196 0.8262392 0 0.5633196 0.8262392 -0 0.5214356 0.8532906 0 0.5214356 0.8532906 -0 0.4782534 0.8782219 0 0.4782534 0.8782219 -0 0.4338838 0.9009688 0 0.4338838 0.9009688 -0 0.3884351 0.9214761 0 0.3884351 0.9214761 -0 0.3420203 0.9396926 0 0.3420203 0.9396926 -0 0.2947547 0.955573 0 0.2947547 0.955573 -0 0.2467576 0.9690773 0 0.2467576 0.9690773 -0 0.1981468 0.9801723 0 0.1490414 0.9888309 0 0.1981468 0.9801723 -0 0.1490414 0.9888309 0 0.09956878 0.9950307 0 0.09956878 0.9950307 -0 0.04984497 0.9987569 0 0.04984497 0.9987569 -0 0 1 0 0 1 -0 -0.04984497 0.9987569 0 -0.04984497 0.9987569 0 -0.09956878 0.9950307 0 -0.09956878 0.9950307 0 -0.1490414 0.9888309 0 -0.1490414 0.9888309 0 -0.1981468 0.9801723 0 -0.1981468 0.9801723 0 -0.2467576 0.9690773 0 -0.2947547 0.955573 0 -0.2467576 0.9690773 0 -0.2947547 0.955573 0 -0.3420203 0.9396926 0 -0.3420203 0.9396926 0 -0.3884351 0.9214761 0 -0.3884351 0.9214761 0 -0.4338838 0.9009688 0 -0.4338838 0.9009688 0 -0.4782534 0.8782219 0 -0.4782534 0.8782219 0 -0.5214356 0.8532906 0 -0.5214356 0.8532906 0 -0.5633196 0.8262392 0 -0.5633196 0.8262392 0 -0.6038044 0.7971325 0 -0.6038044 0.7971325 0 -0.6427878 0.7660443 0 -0.6427878 0.7660443 0 -0.6801725 0.7330521 0 -0.6801725 0.7330521 0 -0.7158672 0.6982364 0 -0.7158672 0.6982364 0 -0.7497813 0.6616858 0 -0.7497813 0.6616858 0 -0.7818316 0.6234896 0 -0.8119381 0.5837436 0 -0.7818316 0.6234896 0 -0.8119381 0.5837436 0 -0.8400257 0.5425466 0 -0.8660254 0.5000001 0 -0.8400257 0.5425466 0 -0.8660254 0.5000001 0 -0.8898718 0.4562107 0 -0.9115056 0.4112875 0 -0.8898718 0.4562107 0 -0.9115056 0.4112875 0 -0.9308739 0.3653406 0 -0.9308739 0.3653406 0 -0.9479272 0.318487 0 -0.9626243 0.2708403 0 -0.9479272 0.318487 0 -0.9626243 0.2708403 0 -0.9749281 0.2225204 0 -0.9749281 0.2225204 0 -0.9848077 0.1736484 0 -0.9848077 0.1736484 0 -0.9922392 0.124344 0 -0.9922392 0.124344 0 -0.9972038 0.07472982 0 -0.9972038 0.07472982 0 -0.9996892 0.02493077 0 -0.9996892 0.02493077 0 -0.9996892 -0.02493077 -0 -0.9996892 -0.02493077 0 -0.9972038 -0.07472982 0 -0.9972038 -0.07472982 0 -0.9922392 -0.124344 -0 -0.9922392 -0.124344 0 -0.9848077 -0.1736484 -0 -0.9848077 -0.1736484 0 -0.9749281 -0.2225204 -0 -0.9749281 -0.2225204 0 -0.9626243 -0.2708403 0 -0.9626243 -0.2708403 0 -0.9479272 -0.318487 -0 -0.9479272 -0.318487 0 -0.9308739 -0.3653406 0 -0.9308739 -0.3653406 0 -0.9115056 -0.4112875 0 -0.9115056 -0.4112875 0 -0.8898718 -0.4562107 -0 -0.8898718 -0.4562107 0 -0.8660254 -0.5000001 0 -0.8660254 -0.5000001 0 -0.8400257 -0.5425466 0 -0.8400257 -0.5425466 0 -0.8119381 -0.5837436 0 -0.8119381 -0.5837436 0 -0.7818316 -0.6234896 -0 -0.7818316 -0.6234896 0 -0.7497813 -0.6616858 0 -0.7497813 -0.6616858 0 -0.7158672 -0.6982364 0 -0.7158672 -0.6982364 0 -0.6801725 -0.7330521 -0 -0.6801725 -0.7330521 0 -0.6427878 -0.7660443 0 -0.6427878 -0.7660443 0 -0.6038044 -0.7971325 0 -0.6038044 -0.7971325 0 -0.5633196 -0.8262392 0 -0.5633196 -0.8262392 0 -0.5214356 -0.8532906 -0 -0.5214356 -0.8532906 0 -0.4782534 -0.8782219 0 -0.4782534 -0.8782219 0 -0.4338838 -0.9009688 0 -0.4338838 -0.9009688 0 -0.3884351 -0.9214761 0 -0.3884351 -0.9214761 0 -0.3420203 -0.9396926 0 -0.3420203 -0.9396926 0 -0.2947547 -0.955573 0 -0.2947547 -0.955573 0 -0.2467576 -0.9690773 0 -0.2467576 -0.9690773 0 -0.1981468 -0.9801723 0 -0.1981468 -0.9801723 0 -0.1490414 -0.9888309 -0 -0.1490414 -0.9888309 0 -0.09956878 -0.9950307 0 -0.09956878 -0.9950307 0 -0.04984497 -0.9987569 0 -0.04984497 -0.9987569 0 0 -1 0 0 -1 0 0.04984497 -0.9987569 0 0.04984497 -0.9987569 0 0.09956878 -0.9950307 0 0.09956878 -0.9950307 0 0.1490414 -0.9888309 0 0.1490414 -0.9888309 0 0.1981468 -0.9801723 0 0.1981468 -0.9801723 0 0.2467576 -0.9690773 0 0.2467576 -0.9690773 0 0.2947547 -0.955573 0 0.2947547 -0.955573 0 0.3420203 -0.9396926 0 0.3420203 -0.9396926 0 0.3884351 -0.9214761 0 0.3884351 -0.9214761 0 0.4338838 -0.9009688 0 0.4782534 -0.8782219 0 0.4338838 -0.9009688 0 0.4782534 -0.8782219 0 0.5214356 -0.8532906 0 0.5214356 -0.8532906 0 0.5633196 -0.8262392 0 0.5633196 -0.8262392 0 0.6038044 -0.7971325 0 0.6038044 -0.7971325 0 0.6427878 -0.7660443 0 0.6427878 -0.7660443 0 0.6801725 -0.7330521 0 0.6801725 -0.7330521 0 0.7158672 -0.6982364 0 0.7158672 -0.6982364 0 0.7497813 -0.6616858 0 0.7497813 -0.6616858 0 0.7818316 -0.6234896 0 0.7818316 -0.6234896 0 0.8119381 -0.5837436 0 0.8119381 -0.5837436 0 0.8400257 -0.5425466 0 0.8400257 -0.5425466 0 0.8660254 -0.5000001 0 0.8660254 -0.5000001 0 0.8898718 -0.4562107 0 0.8898718 -0.4562107 0 0.9115056 -0.4112875 0 0.9115056 -0.4112875 0 0.9308739 -0.3653406 0 0.9479272 -0.318487 0 0.9308739 -0.3653406 0 0.9479272 -0.318487 0 0.9626243 -0.2708403 0 0.9626243 -0.2708403 0 0.9749281 -0.2225204 0 0.9749281 -0.2225204 0 0.9848077 -0.1736484 0 0.9848077 -0.1736484 0 0.9922392 -0.124344 0 0.9922392 -0.124344 0 0.9972038 -0.07472982 0 0.9996892 -0.02493077 0 0.9972038 -0.07472982 0 0.9996892 -0.02493077 0 0 0 -1 0 0 -1 0 0 -1 0 0 -1 0 0 -1 0 0 -1 0 0 -1 0 0 -1 0 0 -1 0 0 -1 0 0 -1 0 0 -1 0 0 -1 0 0 -1 0 0 -1 0 0 -1 0 0 -1 0 0 -1 0 0 -1 0 0 -1 0 0 -1 0 0 -1 0 0 -1 0 0 -1 0 0 -1 0 0 -1 0 0 -1 0 0 -1 0 0 -1 0 -0 -1 0 0 -1 0 0 -1 0 0 -1 0 -0 -1 0 0 -1 0 0 -1 0 0 -1 0 -0 -1 0 -0 -1 0 -0 -1 0 0 -1 0 0 -1 0 -0 -1 0 0 -1 0 0 -1 0 -0 -1 0 -0 -1 0 0 -1 0 0 -1 0 -0 -1 0 -0 -1 0 -0 -1 0 0 -1 0 0 -1 0 -0 -1 0 0 -1 0 -0 -1 0 -0 -1 0 0 -1 0 0 -1 0 0 -1 0 -0 -1 0 0 -1 0 0 -1 0 -0 -1 0 -0 -1 0 0 -1 0 -0 -1 0 -0 -1 0 0 -1 0 0 -1 0 0 -1 0 -0 -1 0 -0 -1 0 0 -1 0 0 -1 0 0 -1 0 -0 -1 0 -0 -1 0 -0 -1 0 -0 -1 0 0 -1 0 0 -1 0 0 -1 0 -0 -1 0 -0 -1 0 -0 -1 0 0 -1 0 0 -1 0 0 -1 -0 -0 -1 0 0 -1 -0 -0 -1 0 0 -1 0 0 -1 -0 -0 -1 -0 -0 -1 -0 -0 -1 0 0 -1 0 0 -1 0 0 -1 0 0 -1 0 0 -1 -0 -0 -1 -0 -0 -1 0 0 -1 0 0 -1 -0 -0 -1 -0 -0 -1 0 -0 -1 -0 -0 -1 -0 -0 -1 0 0 -1 0 0 -1 0 0 -1 -0 -0 -1 0 0 -1 -0 -0 -1 -0 -0 -1 0 -0 -1 0 0 -1 0 0 -1 0 -0 -1 0 0 -1 0 0 1 0 0 1 0 0 1 0 0 1 0 0 1 0 0 1 0 0 1 0 0 1 0 0 1 0 0 1 0 0 1 0 0 1 0 0 1 0 0 1 0 0 1 0 0 1 0 0 1 0 0 1 0 0 1 0 0 1 0 0 1 0 0 1 0 0 1 0 0 1 0 0 1 0 0 1 0 0 1 0 0 1 0 0 1 0 0 1 0 0 1 0 0 1 0 0 1 0 0 1 0 0 1 0 0 1 0 0 1 0 0 1 0 0 1 0 0 1 0 0 1 0 0 1 0 0 1 0 0 1 0 0 1 0 0 1 0 0 1 0 0 1 0 0 1 0 0 1 0 0 1 0 0 1 0 0 1 0 0 1 0 0 1 0 0 1 0 0 1 0 0 1 0 0 1 0 0 1 0 0 1 0 0 1 0 0 1 0 0 1 0 0 1 0 0 1 0 0 1 0 0 1 0 0 1 0 0 1 0 0 1 0 0 1 0 0 1 0 0 1 0 0 1 0 0 1 0 0 1 0 0 1 0 0 1 0 0 1 0 0 1 0 0 1 0 0 1 0 0 1 0 0 1 0 0 1 0 0 1 0 0 1 0 0 1 0 0 1 0 0 1 0 0 1 0 0 1 0 0 1 0 0 1 0 0 1 0 0 1 0 0 1 0 0 1 0 0 1 0 0 1 0 0 1 0 0 1 0 0 1 0 0 1 0 0 1 0 0 1 0 0 1 0 0 1 0 0 1 0 0 1 0 0 1 0 0 1 0 0 1 0 0 1 0 0 1 0 0 1 0 0 1 0 0 1 0 0 1 0 0 1 0 0 1 0 0 1 0 0 1 0 0 1 0 0 1 0 0 1 0 0 1 0 0 1 0 0 1 0 0 1 0 0 1 0 0 1 0 0 1 0 0 1 0 0 1 0 0 1 0 0 1 0 0 1 0 0 1 0 0 1 0 0 1 0 0 1 0 0 1 0 0 1 0 0 1 0 0 1 0 0 1 0 0 1 0 0 1 0 0 1 0 0 1 0 0 1 0 0 1 0 0 1 0 0 1 0 0 1 0 0 1 0 0 1 0 0 1 0 0 1 0 0 1 0 0 1 0 0 1 0 0 1 0 0 1 0 0 1 0 0 1 0 0 1 0 0 1 0 0 1 0 0 1 0 0 1 0 0 1 0 0 1 0 0 1 0 0 1 0 0 1 0 0 1 0 0 1 0 0 1 0 0 1 0 0 1 0 0 1 0 0 1 0 0 1 0 0 1 0 0 1 0 0 1 0 0 1 0 0 1 0 0 1 0 0 1 0 0 1 0 0 1 0 0 1 0 0 1 0 0 1 0 0 1 0 0 1 0 0 1 0 0 1 0 0 1 0 0 1 0 0 1 0 0 1 0 0 1 0 0 1 0 0 1 0 0 1 0 0 1 0 0 1 0 0 1 0 0 1 0 0 1 0 0 1 0 0 1 0 0 1 0 0 1 0 0 1 0 0 1 0 0 1 0 0 1 0 0 1 0 0 1 0 0 1 0 0 1 0 0 1 0 0 1 0 0 1 0 0 1 0 0 1 0 0 1 0 0 1 0 0 1 0 0 1 0 0 1 0 0 1 0 0 1 0 0 1 0 0 1 0 0 1 0 0 1 0 0 1 0 0 1 0 0 1 0 0 1 0 0 1 0 0 1 0 0 1 0 0 1 0 0 1 0.9996891 0.0249314 -0 0.9996891 0.0249314 0 0.9972039 0.0747292 0 0.9922392 0.1243434 0 0.9972039 0.0747292 -0 0.9922392 0.1243434 0 0.9848076 0.1736495 0 0.9749282 0.2225198 0 0.9848076 0.1736495 -0 0.9749282 0.2225198 0 0.9626241 0.2708409 0 0.9626241 0.2708409 -0 0.9479272 0.3184869 0 0.9308736 0.3653413 0 0.9479272 0.3184869 -0 0.9308736 0.3653413 0 0.911506 0.4112867 0 0.911506 0.4112867 -0 0.8898723 0.4562098 0 0.8898723 0.4562098 -0 0.8660248 0.5000011 -0 0.8660248 0.5000011 0 0.8400258 0.5425464 0 0.8400258 0.5425464 0 0.8119382 0.5837435 -0 0.8119382 0.5837435 0 0.7818314 0.6234898 -0 0.7818314 0.6234898 0 0.7497814 0.6616856 0 0.7158667 0.6982369 0 0.7497814 0.6616856 -0 0.7158667 0.6982369 0 0.6801727 0.7330518 0 0.6801727 0.7330518 -0 0.6427881 0.766044 0 0.6038039 0.7971328 0 0.6427881 0.766044 -0 0.6038039 0.7971328 0 0.56332 0.8262388 0 0.56332 0.8262388 -0 0.5214361 0.8532903 0 0.5214361 0.8532903 -0 0.478253 0.8782221 0 0.478253 0.8782221 -0 0.4338848 0.9009684 0 0.4338848 0.9009684 -0 0.3884345 0.9214763 0 0.3884345 0.9214763 -0 0.3420202 0.9396926 0 0.3420202 0.9396926 -0 0.294755 0.9555728 0 0.294755 0.9555728 -0 0.2467568 0.9690774 0 0.2467568 0.9690774 -0 0.1981468 0.9801723 0 0.1490414 0.988831 0 0.1981468 0.9801723 -0 0.1490414 0.988831 0 0.09956878 0.9950306 0 0.09956878 0.9950306 -0 0.04984561 0.9987569 0 0.04984561 0.9987569 -0 0 1 0 0 1 -0 -0.04984561 0.9987569 0 -0.04984561 0.9987569 0 -0.09956878 0.9950306 0 -0.09956878 0.9950306 0 -0.1490414 0.988831 0 -0.1490414 0.988831 0 -0.1981468 0.9801723 0 -0.1981468 0.9801723 0 -0.2467568 0.9690774 0 -0.294755 0.9555728 0 -0.2467568 0.9690774 0 -0.294755 0.9555728 0 -0.3420202 0.9396926 0 -0.3420202 0.9396926 0 -0.3884345 0.9214763 0 -0.3884345 0.9214763 0 -0.4338848 0.9009684 0 -0.4338848 0.9009684 0 -0.478253 0.8782221 0 -0.478253 0.8782221 0 -0.5214361 0.8532903 0 -0.5214361 0.8532903 0 -0.56332 0.8262388 0 -0.56332 0.8262388 0 -0.6038039 0.7971328 0 -0.6038039 0.7971328 0 -0.6427881 0.766044 0 -0.6427881 0.766044 0 -0.6801727 0.7330518 0 -0.6801727 0.7330518 0 -0.7158667 0.6982369 0 -0.7158667 0.6982369 0 -0.7497814 0.6616856 0 -0.7497814 0.6616856 0 -0.7818314 0.6234898 0 -0.8119382 0.5837435 0 -0.7818314 0.6234898 0 -0.8119382 0.5837435 0 -0.8400258 0.5425464 0 -0.8660248 0.5000011 0 -0.8400258 0.5425464 0 -0.8660248 0.5000011 0 -0.8898723 0.4562098 0 -0.911506 0.4112867 0 -0.8898723 0.4562098 0 -0.911506 0.4112867 0 -0.9308736 0.3653413 0 -0.9308736 0.3653413 0 -0.9479272 0.3184869 0 -0.9626241 0.2708409 0 -0.9479272 0.3184869 0 -0.9626241 0.2708409 0 -0.9749282 0.2225198 0 -0.9749282 0.2225198 0 -0.9848076 0.1736495 0 -0.9848076 0.1736495 0 -0.9922392 0.1243434 0 -0.9922392 0.1243434 0 -0.9972039 0.0747292 0 -0.9972039 0.0747292 0 -0.9996891 0.0249314 0 -0.9996891 0.0249314 0 -0.9996891 -0.0249314 -0 -0.9996891 -0.0249314 0 -0.9972039 -0.0747292 0 -0.9972039 -0.0747292 0 -0.9922392 -0.1243434 -0 -0.9922392 -0.1243434 0 -0.9848076 -0.1736495 -0 -0.9848076 -0.1736495 0 -0.9749282 -0.2225198 -0 -0.9749282 -0.2225198 0 -0.9626241 -0.2708409 0 -0.9626241 -0.2708409 0 -0.9479272 -0.3184869 -0 -0.9479272 -0.3184869 0 -0.9308736 -0.3653413 0 -0.9308736 -0.3653413 0 -0.911506 -0.4112867 0 -0.911506 -0.4112867 0 -0.8898723 -0.4562098 -0 -0.8898723 -0.4562098 0 -0.8660248 -0.5000011 0 -0.8660248 -0.5000011 0 -0.8400258 -0.5425464 0 -0.8400258 -0.5425464 0 -0.8119382 -0.5837435 0 -0.8119382 -0.5837435 0 -0.7818314 -0.6234898 -0 -0.7818314 -0.6234898 0 -0.7497814 -0.6616856 0 -0.7497814 -0.6616856 0 -0.7158667 -0.6982369 0 -0.7158667 -0.6982369 0 -0.6801727 -0.7330518 -0 -0.6801727 -0.7330518 0 -0.6427881 -0.766044 0 -0.6427881 -0.766044 0 -0.6038039 -0.7971328 0 -0.6038039 -0.7971328 0 -0.56332 -0.8262388 0 -0.56332 -0.8262388 0 -0.5214361 -0.8532903 -0 -0.5214361 -0.8532903 0 -0.478253 -0.8782221 0 -0.478253 -0.8782221 0 -0.4338848 -0.9009684 0 -0.4338848 -0.9009684 0 -0.3884345 -0.9214763 0 -0.3884345 -0.9214763 0 -0.3420202 -0.9396926 0 -0.3420202 -0.9396926 0 -0.294755 -0.9555728 0 -0.294755 -0.9555728 0 -0.2467568 -0.9690774 0 -0.2467568 -0.9690774 0 -0.1981468 -0.9801723 0 -0.1981468 -0.9801723 0 -0.1490414 -0.988831 -0 -0.1490414 -0.988831 0 -0.09956878 -0.9950306 0 -0.09956878 -0.9950306 0 -0.04984561 -0.9987569 0 -0.04984561 -0.9987569 0 0 -1 0 0 -1 0 0.04984561 -0.9987569 0 0.04984561 -0.9987569 0 0.09956878 -0.9950306 0 0.09956878 -0.9950306 0 0.1490414 -0.988831 0 0.1490414 -0.988831 0 0.1981468 -0.9801723 0 0.1981468 -0.9801723 0 0.2467568 -0.9690774 0 0.2467568 -0.9690774 0 0.294755 -0.9555728 0 0.294755 -0.9555728 0 0.3420202 -0.9396926 0 0.3420202 -0.9396926 0 0.3884345 -0.9214763 0 0.3884345 -0.9214763 0 0.4338848 -0.9009684 0 0.478253 -0.8782221 0 0.4338848 -0.9009684 0 0.478253 -0.8782221 0 0.5214361 -0.8532903 0 0.5214361 -0.8532903 0 0.56332 -0.8262388 0 0.56332 -0.8262388 0 0.6038039 -0.7971328 0 0.6038039 -0.7971328 0 0.6427881 -0.766044 0 0.6427881 -0.766044 0 0.6801727 -0.7330518 0 0.6801727 -0.7330518 0 0.7158667 -0.6982369 0 0.7158667 -0.6982369 0 0.7497814 -0.6616856 0 0.7497814 -0.6616856 0 0.7818314 -0.6234898 0 0.7818314 -0.6234898 0 0.8119382 -0.5837435 0 0.8119382 -0.5837435 0 0.8400258 -0.5425464 0 0.8400258 -0.5425464 0 0.8660248 -0.5000011 0 0.8660248 -0.5000011 0 0.8898723 -0.4562098 0 0.8898723 -0.4562098 0 0.911506 -0.4112867 0 0.911506 -0.4112867 0 0.9308736 -0.3653413 0 0.9479272 -0.3184869 0 0.9308736 -0.3653413 0 0.9479272 -0.3184869 0 0.9626241 -0.2708409 0 0.9626241 -0.2708409 0 0.9749282 -0.2225198 0 0.9749282 -0.2225198 0 0.9848076 -0.1736495 0 0.9848076 -0.1736495 0 0.9922392 -0.1243434 0 0.9922392 -0.1243434 0 0.9972039 -0.0747292 0 0.9996891 -0.0249314 0 0.9972039 -0.0747292 0 0.9996891 -0.0249314 0 0 0 1 0 0 1 0 0 1 0 0 1 0 0 1 0 0 1 0 0 1 0 0 1 0 0 1 0 0 1 0 0 1 0 0 1 0 0 1 0 0 1 0 0 1 0 0 1 0 0 1 0 0 1 0 0 1 0 0 1 0 0 1 0 0 1 0 0 1 0 0 1 0 0 1 0 0 1 0 0 1 0 0 1 0 0 1 0 0 1 0 0 1 0 0 1 0 0 1 0 0 1 0 0 1 0 0 1 0 0 1 0 0 1 0 0 1 0 0 1 0 0 1 0 0 1 0 0 1 0 0 1 0 0 1 0 0 1 0 0 1 0 0 1 0 0 1 0 0 1 0 0 1 0 0 1 0 0 1 0 0 1 0 0 1 0 0 1 0 0 1 0 0 1 0 0 1 0 0 1 0 0 1 0 0 1 0 0 1 0 0 1 0 0 1 0 0 1 0 0 1 0 0 1 0 0 1 0 0 1 0 0 1 0 0 1 0 0 1 0 0 1 0 0 1 0 0 1 0 0 1 0 0 1 0 0 1 0 0 1 0 0 1 0 0 1 0 0 1 0 0 1 0 0 1 0 0 1 0 0 1 0 0 1 0 0 1 0 0 1 0 0 1 0 0 1 0 0 1 0 0 1 0 0 1 0 0 1 0 0 1 0 0 1 0 0 1 0 0 1 0 0 1 0 0 1 0 0 1 0 0 1 0 0 1 0 0 1 0 0 1 0 0 1 0 0 1 0 0 1 0 0 1 0 0 1 0 0 1 0 0 1 0 0 1 0 0 1 0 0 1 0 0 1 0 0 1 0 0 1 0 0 1 0 0 1 0 0 1 0 0 1</float_array>
          <technique_common>
            <accessor count="1004" source="#cubenormals-array0-array" stride="3">
              <param type="float" name="X"/>
              <param type="float" name="Y"/>
              <param type="float" name="Z"/>
            </accessor>
          </technique_common>
        </source>
        <vertices id="cubeverts-array0-vertices">
          <input semantic="POSITION" source="#cubeverts-array0"/>
        </vertices>
        <triangles count="1004" material="ref_wheel2_shape001">
          <input offset="0" semantic="VERTEX" source="#cubeverts-array0-vertices"/>
          <input offset="1" semantic="NORMAL" source="#cubenormals-array0"/>
          <p>0 0 1 0 2 0 2 1 1 1 3 1 3 2 4 2 5 2 5 3 4 3 6 3 1 4 4 4 3 4 4 5 7 5 6 5 6 6 8 6 9 6 9 7 8 7 10 7 7 8 8 8 6 8 8 9 11 9 10 9 10 10 12 10 13 10 11 11 12 11 10 11 13 12 14 12 15 12 15 13 14 13 16 13 12 14 14 14 13 14 14 15 17 15 16 15 16 16 18 16 19 16 17 17 18 17 16 17 19 18 20 18 21 18 18 19 20 19 19 19 20 20 22 20 21 20 21 21 22 21 23 21 23 22 22 22 24 22 22 23 25 23 24 23 25 24 26 24 24 24 24 25 26 25 27 25 26 26 28 26 27 26 27 27 28 27 29 27 29 28 30 28 31 28 31 29 30 29 32 29 28 30 30 30 29 30 30 31 33 31 32 31 32 32 34 32 35 32 33 33 34 33 32 33 35 34 36 34 37 34 37 35 36 35 38 35 34 36 36 36 35 36 36 37 39 37 38 37 38 38 40 38 41 38 39 39 40 39 38 39 41 40 42 40 43 40 40 41 42 41 41 41 43 42 44 42 45 42 42 43 44 43 43 43 45 44 46 44 47 44 44 45 46 45 45 45 47 46 48 46 49 46 46 47 48 47 47 47 49 48 50 48 51 48 48 49 50 49 49 49 51 50 52 50 53 50 50 51 52 51 51 51 53 52 54 52 55 52 52 53 54 53 53 53 55 54 56 54 57 54 57 55 56 55 58 55 54 56 56 56 55 56 56 57 59 57 58 57 58 58 60 58 61 58 59 59 60 59 58 59 61 60 62 60 63 60 60 61 62 61 61 61 63 62 64 62 65 62 62 63 64 63 63 63 65 64 66 64 67 64 64 65 66 65 65 65 67 66 68 66 69 66 66 67 68 67 67 67 69 68 70 68 71 68 68 69 70 69 69 69 71 70 72 70 73 70 70 71 72 71 71 71 73 72 74 72 75 72 75 73 74 73 76 73 72 74 74 74 73 74 74 75 77 75 76 75 76 76 77 76 78 76 77 77 79 77 78 77 79 78 80 78 78 78 78 79 80 79 81 79 80 80 82 80 81 80 81 81 82 81 83 81 82 82 84 82 83 82 83 83 84 83 85 83 84 84 86 84 85 84 85 85 86 85 87 85 86 86 88 86 87 86 87 87 88 87 89 87 88 88 90 88 89 88 89 89 90 89 91 89 90 90 92 90 91 90 91 91 92 91 93 91 93 92 92 92 94 92 92 93 95 93 94 93 94 94 96 94 97 94 95 95 96 95 94 95 97 96 98 96 99 96 96 97 98 97 97 97 99 98 100 98 101 98 101 99 100 99 102 99 98 100 100 100 99 100 100 101 103 101 102 101 102 102 104 102 105 102 105 103 104 103 106 103 103 104 104 104 102 104 104 105 107 105 106 105 106 106 108 106 109 106 109 107 108 107 110 107 107 108 108 108 106 108 108 109 111 109 110 109 110 110 112 110 113 110 111 111 112 111 110 111 113 112 114 112 115 112 115 113 114 113 116 113 112 114 114 114 113 114 114 115 117 115 116 115 116 116 118 116 119 116 117 117 118 117 116 117 119 118 120 118 121 118 118 119 120 119 119 119 121 120 122 120 123 120 120 121 122 121 121 121 122 122 124 122 123 122 123 123 124 123 125 123 125 124 124 124 126 124 124 125 127 125 126 125 126 126 127 126 128 126 127 127 129 127 128 127 129 128 130 128 128 128 128 129 130 129 131 129 131 130 130 130 132 130 130 131 133 131 132 131 132 132 133 132 134 132 133 133 135 133 134 133 134 134 135 134 136 134 135 135 137 135 136 135 137 136 138 136 136 136 136 137 138 137 139 137 139 138 138 138 140 138 138 139 141 139 140 139 141 140 142 140 140 140 140 141 142 141 143 141 142 142 144 142 143 142 143 143 144 143 145 143 145 144 144 144 146 144 144 145 147 145 146 145 147 146 148 146 146 146 146 147 148 147 149 147 148 148 150 148 149 148 149 149 150 149 151 149 150 150 152 150 151 150 151 151 152 151 153 151 153 152 152 152 154 152 152 153 155 153 154 153 155 154 156 154 154 154 154 155 156 155 157 155 156 156 158 156 157 156 157 157 158 157 159 157 159 158 158 158 160 158 158 159 161 159 160 159 161 160 162 160 160 160 160 161 162 161 163 161 162 162 164 162 163 162 163 163 164 163 165 163 165 164 166 164 167 164 164 165 166 165 165 165 167 166 166 166 168 166 166 167 169 167 168 167 168 168 170 168 171 168 169 169 170 169 168 169 171 170 172 170 173 170 170 171 172 171 171 171 173 172 174 172 175 172 172 173 174 173 173 173 174 174 176 174 175 174 175 175 176 175 177 175 176 176 178 176 177 176 177 177 178 177 179 177 178 178 180 178 179 178 179 179 180 179 181 179 180 180 182 180 181 180 181 181 182 181 183 181 183 182 182 182 184 182 182 183 185 183 184 183 185 184 186 184 184 184 184 185 186 185 187 185 186 186 188 186 187 186 187 187 188 187 189 187 188 188 190 188 189 188 189 189 190 189 191 189 190 190 192 190 191 190 191 191 192 191 193 191 192 192 194 192 193 192 193 193 194 193 195 193 194 194 196 194 195 194 195 195 196 195 197 195 196 196 198 196 197 196 197 197 198 197 199 197 199 198 200 198 201 198 198 199 200 199 199 199 201 200 202 200 203 200 200 201 202 201 201 201 203 202 204 202 205 202 202 203 204 203 203 203 205 204 206 204 207 204 204 205 206 205 205 205 207 206 208 206 209 206 209 207 208 207 210 207 206 208 208 208 207 208 208 209 211 209 210 209 210 210 212 210 213 210 211 211 212 211 210 211 213 212 214 212 215 212 212 213 214 213 213 213 215 214 216 214 217 214 214 215 216 215 215 215 217 216 218 216 219 216 216 217 218 217 217 217 219 218 220 218 221 218 218 219 220 219 219 219 221 220 222 220 223 220 220 221 222 221 221 221 222 222 224 222 223 222 223 223 224 223 225 223 224 224 226 224 225 224 225 225 226 225 227 225 226 226 228 226 227 226 227 227 228 227 229 227 228 228 230 228 229 228 229 229 230 229 231 229 230 230 232 230 231 230 231 231 232 231 233 231 233 232 234 232 235 232 232 233 234 233 233 233 235 234 236 234 237 234 234 235 236 235 235 235 237 236 238 236 239 236 239 237 238 237 240 237 236 238 238 238 237 238 238 239 241 239 240 239 240 240 242 240 243 240 241 241 242 241 240 241 243 242 244 242 245 242 242 243 244 243 243 243 245 244 246 244 247 244 244 245 246 245 245 245 247 246 248 246 249 246 246 247 248 247 247 247 249 248 250 248 251 248 251 249 250 249 2 249 248 250 250 250 249 250 250 251 0 251 2 251 156 252 162 252 158 252 158 253 162 253 161 253 156 254 164 254 162 254 156 255 166 255 164 255 147 256 144 256 148 256 156 257 142 257 166 257 144 258 142 258 148 258 148 259 142 259 150 259 150 260 142 260 152 260 152 261 142 261 155 261 155 262 142 262 156 262 166 263 142 263 169 263 141 264 138 264 142 264 142 265 180 265 169 265 138 266 180 266 142 266 169 267 180 267 170 267 170 268 180 268 172 268 172 269 180 269 174 269 174 270 180 270 176 270 176 271 180 271 178 271 135 272 133 272 137 272 137 273 133 273 138 273 138 274 185 274 180 274 180 275 185 275 182 275 138 276 188 276 185 276 185 277 188 277 186 277 129 278 127 278 130 278 130 279 127 279 133 279 133 280 127 280 138 280 124 281 122 281 127 281 138 282 194 282 188 282 188 283 194 283 190 283 190 284 194 284 192 284 122 285 120 285 127 285 194 286 200 286 196 286 138 287 200 287 194 287 196 288 200 288 198 288 120 289 114 289 127 289 117 290 114 290 118 290 118 291 114 291 120 291 127 292 114 292 138 292 138 293 202 293 200 293 112 294 111 294 114 294 138 295 206 295 202 295 202 296 206 296 204 296 111 297 108 297 114 297 108 298 107 298 114 298 206 299 212 299 208 299 208 300 212 300 211 300 104 301 103 301 107 301 107 302 100 302 114 302 103 303 100 303 107 303 212 304 216 304 214 304 206 305 216 305 212 305 100 306 98 306 114 306 206 307 218 307 216 307 98 308 95 308 114 308 96 309 95 309 98 309 218 310 222 310 220 310 206 311 222 311 218 311 206 312 224 312 222 312 92 313 90 313 95 313 224 314 228 314 226 314 206 315 228 315 224 315 88 316 86 316 90 316 90 317 86 317 95 317 206 318 230 318 228 318 95 319 84 319 114 319 86 320 84 320 95 320 230 321 234 321 232 321 138 322 234 322 206 322 206 323 234 323 230 323 79 324 77 324 80 324 80 325 77 325 82 325 234 326 241 326 236 326 236 327 241 327 238 327 138 328 241 328 234 328 82 329 74 329 84 329 84 330 74 330 114 330 77 331 74 331 82 331 72 332 70 332 74 332 242 333 246 333 244 333 246 334 250 334 248 334 242 335 250 335 246 335 66 336 64 336 68 336 68 337 64 337 70 337 70 338 64 338 74 338 242 339 0 339 250 339 242 340 1 340 0 340 241 341 1 341 242 341 62 342 60 342 64 342 241 343 4 343 1 343 60 344 59 344 64 344 4 345 8 345 7 345 241 346 8 346 4 346 59 347 52 347 64 347 54 348 52 348 56 348 56 349 52 349 59 349 8 350 12 350 11 350 241 351 12 351 8 351 241 352 14 352 12 352 138 353 14 353 241 353 114 354 14 354 138 354 50 355 48 355 52 355 52 356 48 356 64 356 14 357 18 357 17 357 114 358 18 358 14 358 44 359 42 359 46 359 46 360 42 360 48 360 64 361 40 361 74 361 48 362 40 362 64 362 42 363 40 363 48 363 18 364 25 364 20 364 20 365 25 365 22 365 18 366 26 366 25 366 39 367 36 367 40 367 18 368 28 368 26 368 40 369 34 369 74 369 36 370 34 370 40 370 74 371 34 371 114 371 18 372 30 372 28 372 18 373 33 373 30 373 34 374 33 374 114 374 114 375 33 375 18 375 252 376 154 376 157 376 252 377 157 377 159 377 252 378 159 378 253 378 254 379 159 379 160 379 254 380 253 380 159 380 255 381 154 381 252 381 256 382 254 382 160 382 256 383 160 383 163 383 257 384 154 384 255 384 257 385 151 385 153 385 257 386 153 386 154 386 258 387 163 387 165 387 258 388 256 388 163 388 259 389 151 389 257 389 260 390 258 390 165 390 260 391 165 391 167 391 261 392 151 392 259 392 261 393 149 393 151 393 262 394 167 394 168 394 262 395 260 395 167 395 263 396 145 396 146 396 263 397 149 397 261 397 263 398 146 398 149 398 264 399 262 399 168 399 264 400 168 400 171 400 265 401 145 401 263 401 266 402 171 402 173 402 266 403 264 403 171 403 267 404 143 404 145 404 267 405 145 405 265 405 268 406 266 406 173 406 268 407 173 407 175 407 269 408 140 408 143 408 269 409 143 409 267 409 270 410 175 410 177 410 270 411 268 411 175 411 271 412 136 412 139 412 271 413 139 413 140 413 271 414 140 414 269 414 272 415 270 415 177 415 272 416 177 416 179 416 273 417 136 417 271 417 274 418 272 418 179 418 274 419 179 419 181 419 275 420 136 420 273 420 275 421 134 421 136 421 276 422 274 422 181 422 276 423 181 423 183 423 276 424 183 424 184 424 277 425 134 425 275 425 277 426 132 426 134 426 278 427 276 427 184 427 279 428 132 428 277 428 279 429 131 429 132 429 280 430 278 430 184 430 280 431 184 431 187 431 281 432 131 432 279 432 281 433 128 433 131 433 282 434 280 434 187 434 282 435 187 435 189 435 283 436 128 436 281 436 283 437 126 437 128 437 284 438 282 438 189 438 284 439 189 439 191 439 285 440 126 440 283 440 285 441 125 441 126 441 286 442 284 442 191 442 286 443 191 443 193 443 287 444 125 444 285 444 287 445 123 445 125 445 288 446 286 446 193 446 288 447 193 447 195 447 288 448 195 448 197 448 289 449 123 449 287 449 289 450 121 450 123 450 290 451 288 451 197 451 290 452 197 452 199 452 291 453 121 453 289 453 291 454 119 454 121 454 292 455 290 455 199 455 293 456 119 456 291 456 293 457 116 457 119 457 294 458 292 458 199 458 294 459 199 459 201 459 295 460 116 460 293 460 295 461 115 461 116 461 296 462 201 462 203 462 296 463 294 463 201 463 297 464 115 464 295 464 297 465 110 465 113 465 297 466 113 466 115 466 298 467 203 467 205 467 298 468 205 468 207 468 298 469 296 469 203 469 299 470 110 470 297 470 300 471 298 471 207 471 301 472 110 472 299 472 301 473 109 473 110 473 302 474 207 474 209 474 302 475 300 475 207 475 303 476 109 476 301 476 303 477 106 477 109 477 304 478 209 478 210 478 304 479 302 479 209 479 305 480 105 480 106 480 305 481 106 481 303 481 306 482 210 482 213 482 306 483 304 483 210 483 307 484 102 484 105 484 307 485 105 485 305 485 308 486 213 486 215 486 308 487 306 487 213 487 309 488 102 488 307 488 309 489 101 489 102 489 310 490 215 490 217 490 310 491 308 491 215 491 311 492 99 492 101 492 311 493 101 493 309 493 312 494 217 494 219 494 312 495 310 495 217 495 313 496 97 496 99 496 313 497 99 497 311 497 314 498 219 498 221 498 314 499 312 499 219 499 315 500 314 500 221 500 94 501 97 501 313 501 94 502 313 502 316 502 317 503 94 503 316 503 223 504 315 504 221 504 223 505 318 505 315 505 93 506 94 506 317 506 93 507 317 507 319 507 225 508 318 508 223 508 91 509 93 509 319 509 227 510 318 510 225 510 227 511 320 511 318 511 89 512 91 512 319 512 89 513 319 513 321 513 229 514 320 514 227 514 229 515 322 515 320 515 87 516 89 516 321 516 87 517 321 517 323 517 231 518 324 518 322 518 231 519 325 519 324 519 231 520 322 520 229 520 85 521 323 521 326 521 85 522 87 522 323 522 233 523 325 523 231 523 83 524 327 524 328 524 83 525 326 525 327 525 83 526 85 526 326 526 235 527 329 527 325 527 235 528 325 528 233 528 81 529 83 529 328 529 237 530 329 530 235 530 237 531 330 531 329 531 237 532 331 532 330 532 78 533 81 533 328 533 78 534 332 534 333 534 78 535 328 535 332 535 239 536 331 536 237 536 76 537 78 537 333 537 240 538 334 538 331 538 240 539 331 539 239 539 75 540 76 540 333 540 75 541 333 541 335 541 243 542 334 542 240 542 243 543 336 543 334 543 73 544 337 544 338 544 73 545 335 545 337 545 73 546 75 546 335 546 245 547 339 547 336 547 245 548 336 548 243 548 71 549 73 549 338 549 247 550 340 550 339 550 247 551 339 551 245 551 69 552 341 552 342 552 69 553 338 553 341 553 69 554 71 554 338 554 249 555 343 555 340 555 249 556 340 556 247 556 67 557 69 557 342 557 251 558 343 558 249 558 251 559 344 559 343 559 65 560 342 560 345 560 65 561 67 561 342 561 2 562 346 562 344 562 2 563 344 563 251 563 63 564 65 564 345 564 63 565 345 565 347 565 3 566 348 566 346 566 3 567 346 567 2 567 61 568 347 568 349 568 61 569 63 569 347 569 5 570 350 570 348 570 5 571 348 571 3 571 58 572 61 572 349 572 58 573 349 573 351 573 6 574 352 574 350 574 6 575 350 575 5 575 57 576 58 576 351 576 57 577 351 577 353 577 9 578 354 578 352 578 9 579 355 579 354 579 9 580 352 580 6 580 55 581 57 581 353 581 55 582 353 582 356 582 10 583 355 583 9 583 53 584 55 584 356 584 53 585 356 585 357 585 13 586 358 586 355 586 13 587 355 587 10 587 51 588 53 588 357 588 51 589 357 589 359 589 15 590 360 590 358 590 15 591 358 591 13 591 49 592 51 592 359 592 49 593 359 593 361 593 16 594 362 594 360 594 16 595 363 595 362 595 16 596 360 596 15 596 47 597 49 597 361 597 47 598 364 598 365 598 47 599 361 599 364 599 19 600 363 600 16 600 45 601 47 601 365 601 45 602 365 602 366 602 21 603 367 603 363 603 21 604 363 604 19 604 43 605 45 605 366 605 23 606 367 606 21 606 23 607 368 607 367 607 41 608 43 608 366 608 41 609 366 609 369 609 24 610 368 610 23 610 24 611 370 611 368 611 38 612 41 612 369 612 38 613 369 613 371 613 27 614 370 614 24 614 27 615 372 615 370 615 27 616 373 616 372 616 37 617 38 617 371 617 37 618 374 618 375 618 37 619 371 619 374 619 29 620 373 620 27 620 35 621 37 621 375 621 31 622 376 622 373 622 31 623 373 623 29 623 32 624 377 624 376 624 32 625 375 625 377 625 32 626 376 626 31 626 32 627 35 627 375 627 346 628 348 628 378 628 378 629 348 629 379 629 379 630 350 630 380 630 380 631 350 631 381 631 348 632 350 632 379 632 350 633 352 633 381 633 381 634 354 634 382 634 382 635 354 635 383 635 352 636 354 636 381 636 354 637 355 637 383 637 383 638 358 638 384 638 355 639 358 639 383 639 384 640 360 640 385 640 385 641 360 641 386 641 358 642 360 642 384 642 360 643 362 643 386 643 386 644 363 644 387 644 362 645 363 645 386 645 387 646 367 646 388 646 363 647 367 647 387 647 367 648 368 648 388 648 388 649 368 649 389 649 389 650 368 650 390 650 368 651 370 651 390 651 370 652 372 652 390 652 390 653 372 653 391 653 372 654 373 654 391 654 391 655 373 655 392 655 392 656 376 656 393 656 393 657 376 657 394 657 373 658 376 658 392 658 376 659 377 659 394 659 394 660 375 660 395 660 377 661 375 661 394 661 395 662 374 662 396 662 396 663 374 663 397 663 375 664 374 664 395 664 374 665 371 665 397 665 397 666 369 666 398 666 371 667 369 667 397 667 398 668 366 668 399 668 369 669 366 669 398 669 399 670 365 670 400 670 366 671 365 671 399 671 400 672 364 672 401 672 365 673 364 673 400 673 401 674 361 674 402 674 364 675 361 675 401 675 402 676 359 676 403 676 361 677 359 677 402 677 403 678 357 678 404 678 359 679 357 679 403 679 404 680 356 680 405 680 357 681 356 681 404 681 405 682 353 682 406 682 406 683 353 683 407 683 356 684 353 684 405 684 353 685 351 685 407 685 407 686 349 686 408 686 351 687 349 687 407 687 408 688 347 688 409 688 349 689 347 689 408 689 409 690 345 690 410 690 347 691 345 691 409 691 410 692 342 692 411 692 345 693 342 693 410 693 411 694 341 694 412 694 342 695 341 695 411 695 412 696 338 696 413 696 341 697 338 697 412 697 413 698 337 698 414 698 338 699 337 699 413 699 414 700 335 700 415 700 415 701 335 701 416 701 337 702 335 702 414 702 335 703 333 703 416 703 416 704 333 704 417 704 333 705 332 705 417 705 332 706 328 706 417 706 417 707 328 707 418 707 328 708 327 708 418 708 418 709 327 709 419 709 327 710 326 710 419 710 419 711 326 711 420 711 326 712 323 712 420 712 420 713 323 713 421 713 323 714 321 714 421 714 421 715 321 715 422 715 321 716 319 716 422 716 422 717 319 717 423 717 319 718 317 718 423 718 423 719 317 719 424 719 424 720 317 720 425 720 317 721 316 721 425 721 425 722 313 722 426 722 316 723 313 723 425 723 426 724 311 724 427 724 313 725 311 725 426 725 427 726 309 726 428 726 428 727 309 727 429 727 311 728 309 728 427 728 309 729 307 729 429 729 429 730 305 730 430 730 430 731 305 731 431 731 307 732 305 732 429 732 305 733 303 733 431 733 431 734 301 734 432 734 432 735 301 735 433 735 303 736 301 736 431 736 301 737 299 737 433 737 433 738 297 738 434 738 299 739 297 739 433 739 434 740 295 740 435 740 435 741 295 741 436 741 297 742 295 742 434 742 295 743 293 743 436 743 436 744 291 744 437 744 293 745 291 745 436 745 437 746 289 746 438 746 291 747 289 747 437 747 438 748 287 748 439 748 289 749 287 749 438 749 287 750 285 750 439 750 439 751 285 751 440 751 440 752 285 752 441 752 285 753 283 753 441 753 441 754 283 754 442 754 283 755 281 755 442 755 281 756 279 756 442 756 442 757 279 757 443 757 443 758 279 758 444 758 279 759 277 759 444 759 444 760 277 760 445 760 277 761 275 761 445 761 445 762 275 762 446 762 275 763 273 763 446 763 273 764 271 764 446 764 446 765 271 765 447 765 447 766 271 766 448 766 271 767 269 767 448 767 269 768 267 768 448 768 448 769 267 769 449 769 267 770 265 770 449 770 449 771 265 771 450 771 450 772 265 772 451 772 265 773 263 773 451 773 263 774 261 774 451 774 451 775 261 775 452 775 261 776 259 776 452 776 452 777 259 777 453 777 259 778 257 778 453 778 453 779 257 779 454 779 454 780 257 780 455 780 257 781 255 781 455 781 255 782 252 782 455 782 455 783 252 783 456 783 252 784 253 784 456 784 456 785 253 785 457 785 457 786 253 786 458 786 253 787 254 787 458 787 254 788 256 788 458 788 458 789 256 789 459 789 256 790 258 790 459 790 459 791 258 791 460 791 460 792 260 792 461 792 258 793 260 793 460 793 461 794 260 794 462 794 260 795 262 795 462 795 462 796 264 796 463 796 262 797 264 797 462 797 463 798 266 798 464 798 264 799 266 799 463 799 464 800 268 800 465 800 266 801 268 801 464 801 268 802 270 802 465 802 465 803 270 803 466 803 270 804 272 804 466 804 466 805 272 805 467 805 272 806 274 806 467 806 467 807 274 807 468 807 274 808 276 808 468 808 468 809 276 809 469 809 469 810 276 810 470 810 276 811 278 811 470 811 278 812 280 812 470 812 470 813 280 813 471 813 280 814 282 814 471 814 471 815 282 815 472 815 282 816 284 816 472 816 472 817 284 817 473 817 284 818 286 818 473 818 473 819 286 819 474 819 286 820 288 820 474 820 474 821 288 821 475 821 288 822 290 822 475 822 475 823 290 823 476 823 290 824 292 824 476 824 476 825 292 825 477 825 477 826 294 826 478 826 292 827 294 827 477 827 478 828 296 828 479 828 294 829 296 829 478 829 479 830 298 830 480 830 296 831 298 831 479 831 480 832 300 832 481 832 298 833 300 833 480 833 481 834 302 834 482 834 482 835 302 835 483 835 300 836 302 836 481 836 302 837 304 837 483 837 483 838 306 838 484 838 304 839 306 839 483 839 484 840 308 840 485 840 306 841 308 841 484 841 485 842 310 842 486 842 308 843 310 843 485 843 486 844 312 844 487 844 310 845 312 845 486 845 487 846 314 846 488 846 312 847 314 847 487 847 488 848 315 848 489 848 314 849 315 849 488 849 315 850 318 850 489 850 489 851 318 851 490 851 318 852 320 852 490 852 490 853 320 853 491 853 320 854 322 854 491 854 491 855 322 855 492 855 322 856 324 856 492 856 492 857 324 857 493 857 324 858 325 858 493 858 493 859 325 859 494 859 494 860 329 860 495 860 325 861 329 861 494 861 495 862 330 862 496 862 329 863 330 863 495 863 496 864 331 864 497 864 497 865 331 865 498 865 330 866 331 866 496 866 331 867 334 867 498 867 498 868 336 868 499 868 334 869 336 869 498 869 499 870 339 870 500 870 336 871 339 871 499 871 500 872 340 872 501 872 339 873 340 873 500 873 501 874 343 874 502 874 340 875 343 875 501 875 502 876 344 876 503 876 503 877 344 877 378 877 343 878 344 878 502 878 344 879 346 879 378 879 459 880 456 880 457 880 459 881 457 881 458 881 454 882 456 882 459 882 454 883 455 883 456 883 461 884 454 884 459 884 461 885 459 885 460 885 463 886 461 886 462 886 450 887 451 887 452 887 449 888 450 888 452 888 449 889 452 889 453 889 449 890 453 890 454 890 467 891 461 891 463 891 467 892 463 892 464 892 467 893 464 893 465 893 467 894 465 894 466 894 446 895 454 895 461 895 446 896 449 896 454 896 446 897 447 897 448 897 446 898 448 898 449 898 469 899 461 899 467 899 469 900 467 900 468 900 444 901 445 901 446 901 442 902 443 902 444 902 440 903 441 903 442 903 440 904 442 904 444 904 474 905 472 905 473 905 476 906 461 906 469 906 476 907 469 907 470 907 476 908 470 908 471 908 476 909 471 909 472 909 476 910 474 910 475 910 476 911 472 911 474 911 477 912 461 912 476 912 436 913 437 913 438 913 436 914 438 914 439 914 435 915 436 915 439 915 435 916 439 916 440 916 479 917 477 917 478 917 434 918 435 918 440 918 434 919 444 919 446 919 434 920 440 920 444 920 480 921 477 921 479 921 481 922 477 922 480 922 432 923 434 923 446 923 432 924 433 924 434 924 482 925 477 925 481 925 483 926 477 926 482 926 430 927 431 927 432 927 484 928 477 928 483 928 428 929 429 929 430 929 427 930 430 930 432 930 427 931 428 931 430 931 487 932 477 932 484 932 487 933 484 933 485 933 487 934 485 934 486 934 426 935 427 935 432 935 426 936 432 936 446 936 425 937 426 937 446 937 489 938 487 938 488 938 489 939 477 939 487 939 492 940 489 940 490 940 492 941 490 941 491 941 493 942 489 942 492 942 420 943 421 943 422 943 420 944 422 944 423 944 494 945 489 945 493 945 495 946 477 946 489 946 495 947 489 947 494 947 496 948 461 948 477 948 496 949 477 949 495 949 417 950 418 950 419 950 417 951 419 951 420 951 417 952 423 952 424 952 417 953 420 953 423 953 415 954 416 954 417 954 415 955 424 955 425 955 415 956 417 956 424 956 499 957 497 957 498 957 414 958 425 958 446 958 414 959 415 959 425 959 500 960 496 960 497 960 500 961 461 961 496 961 500 962 446 962 461 962 500 963 497 963 499 963 412 964 413 964 414 964 502 965 500 965 501 965 410 966 412 966 414 966 410 967 411 967 412 967 409 968 410 968 414 968 379 969 446 969 500 969 379 970 500 970 502 970 379 971 502 971 503 971 379 972 503 972 378 972 407 973 408 973 409 973 381 974 379 974 380 974 406 975 407 975 409 975 403 976 404 976 405 976 403 977 406 977 409 977 403 978 405 978 406 978 385 979 382 979 383 979 385 980 383 980 384 980 401 981 402 981 403 981 387 982 385 982 386 982 390 983 381 983 382 983 390 984 387 984 388 984 390 985 388 985 389 985 390 986 382 986 385 986 390 987 385 987 387 987 397 988 409 988 414 988 397 989 398 989 399 989 397 990 399 990 400 990 397 991 400 991 401 991 397 992 403 992 409 992 397 993 401 993 403 993 392 994 390 994 391 994 392 995 446 995 379 995 392 996 379 996 381 996 392 997 381 997 390 997 392 998 414 998 446 998 395 999 396 999 397 999 394 1000 392 1000 393 1000 394 1001 395 1001 397 1001 394 1002 397 1002 414 1002 394 1003 414 1003 392 1003</p>
        </triangles>
      </mesh>
    </geometry>
  </library_geometries>
  <library_materials>
    <material id="mat_wheel2_shape001" name="wheel2_shape001">
      <instance_effect url="#effect_wheel2_shape001"/>
    </material>
  </library_materials>
  <library_visual_scenes>
    <visual_scene id="myscene">
      <node id="node0" name="node0">
        <instance_geometry url="#geometry0">
          <bind_material>
            <technique_common>
              <instance_material symbol="ref_wheel2_shape001" target="#mat_wheel2_shape001"/>
            </technique_common>
          </bind_material>
        </instance_geometry>
      </node>
    </visual_scene>
  </library_visual_scenes>
  <scene>
    <instance_visual_scene url="#myscene"/>
  </scene>
</COLLADA>
